<?xml version="1.0" standalone="no"?>
<!DOCTYPE svg PUBLIC "-//W3C//DTD SVG 20010904//EN"
 "http://www.w3.org/TR/2001/REC-SVG-20010904/DTD/svg10.dtd">
<svg version="1.0" xmlns="http://www.w3.org/2000/svg"
 width="483.000000pt" height="483.000000pt" viewBox="0 0 483.000000 483.000000"
 preserveAspectRatio="xMidYMid meet">
<metadata>
Created by potrace 1.11, written by Peter Selinger 2001-2013
</metadata>
<g transform="translate(0.000000,483.000000) scale(0.100000,-0.100000)"
fill="#000000" stroke="none">
<path d="M2445 4430 c-11 -5 -39 -9 -63 -9 -24 -1 -52 -5 -62 -11 -10 -5 -42
-12 -72 -16 -136 -16 -242 -59 -326 -131 -20 -18 -75 -53 -122 -77 -47 -25
-93 -53 -103 -63 -24 -27 -57 -106 -60 -145 -2 -18 -6 -39 -10 -45 -18 -28
-46 -125 -53 -180 -3 -32 -8 -65 -10 -73 -1 -8 -3 -21 -3 -29 -1 -7 -47 31
-104 85 -91 88 -335 290 -425 353 -46 32 -116 25 -149 -14 -27 -30 -22 -51 8
-35 16 9 19 7 19 -10 0 -19 1 -20 37 -5 l36 15 -26 -24 c-36 -33 -34 -46 6
-47 17 -1 24 -3 14 -6 -9 -2 -14 -9 -11 -15 4 -5 -3 -5 -16 2 -18 10 -21 9
-18 -1 3 -8 40 -32 82 -55 93 -49 237 -187 320 -304 30 -41 93 -113 141 -159
54 -52 83 -87 75 -89 -7 -3 -23 -16 -35 -30 -14 -16 -28 -23 -38 -19 -23 9
-22 26 1 20 12 -3 24 4 35 20 15 23 14 25 -13 45 l-28 21 -7 -26 c-3 -14 -13
-32 -20 -40 -15 -15 -20 -59 -9 -87 10 -25 40 -19 80 16 l37 33 -6 -105 c-4
-58 -7 -113 -7 -122 0 -10 -4 -18 -10 -18 -5 0 -8 6 -5 13 2 6 6 54 10 106 l6
93 -29 -23 c-28 -23 -29 -28 -31 -104 -1 -80 -9 -178 -18 -225 -2 -14 -6 -66
-9 -116 -3 -75 -1 -91 11 -91 19 0 50 65 69 142 37 154 34 148 36 60 1 -44 3
-87 4 -95 2 -8 6 -40 9 -70 5 -43 2 -37 -10 25 l-16 80 -13 -35 c-17 -48 -17
-109 1 -188 16 -69 51 -143 72 -149 14 -5 27 54 21 97 -3 17 -2 30 1 30 14 0
131 -528 156 -705 3 -22 8 -46 11 -53 7 -24 18 -174 19 -262 0 -120 -14 -279
-35 -395 -5 -27 -12 -68 -15 -90 -2 -22 -8 -57 -11 -78 -3 -20 -8 -49 -10 -65
-2 -15 -7 -82 -10 -149 -6 -104 -4 -130 11 -170 40 -109 76 -133 266 -182 141
-36 209 -44 374 -45 192 -1 303 12 475 55 137 35 216 82 235 139 11 34 13 271
2 315 -3 11 -12 58 -21 105 -9 47 -19 96 -22 110 -4 14 -8 138 -10 275 -3 291
4 375 67 745 55 329 66 378 74 348 16 -59 61 7 89 129 19 85 19 135 2 183
l-13 35 -13 -78 c-7 -43 -16 -80 -20 -82 -4 -3 -4 12 1 33 5 20 12 93 16 162
l6 125 22 -105 c25 -116 44 -168 68 -189 14 -11 18 -11 23 3 8 20 -4 165 -21
270 -4 22 -2 27 10 22 11 -4 15 2 16 22 7 138 6 172 -2 177 -8 6 -11 -24 -12
-142 0 -24 -4 -43 -9 -43 -8 0 -11 57 -9 145 0 27 -6 46 -21 62 -33 35 -40 28
-34 -34 3 -32 8 -94 10 -138 7 -140 -11 -24 -26 165 -1 8 0 29 1 45 1 26 3 28
14 15 19 -24 60 -50 79 -50 12 0 19 11 23 34 8 39 -2 79 -16 71 -5 -4 -10 -1
-10 4 -1 6 -3 16 -4 21 -1 6 -3 15 -4 20 -1 14 -12 12 -35 -5 -17 -13 -18 -18
-7 -41 8 -19 17 -25 31 -21 24 6 27 -11 4 -20 -15 -6 -74 45 -74 64 0 4 36 41
79 81 44 39 102 104 129 143 27 39 95 117 150 173 80 81 116 109 176 140 42
21 76 42 76 48 0 6 -7 7 -16 4 -8 -3 -13 -2 -10 3 15 23 -118 28 -172 6 l-37
-15 24 20 c13 11 29 21 37 21 23 2 28 4 40 12 7 3 36 -2 65 -12 81 -27 100
-15 52 34 -23 23 -24 26 -6 16 48 -25 69 -6 36 33 -11 12 -5 9 15 -7 36 -29
59 -28 43 2 -16 30 -36 41 -84 47 -44 6 -50 4 -104 -36 -73 -55 -311 -248
-338 -275 -12 -11 -55 -53 -96 -92 l-74 -73 -3 98 c-3 122 -9 150 -38 185 -13
16 -24 39 -24 51 0 25 -51 102 -82 124 -10 7 -25 26 -32 41 -8 15 -31 38 -50
52 -19 13 -43 41 -52 62 -12 25 -25 39 -43 43 -58 13 -84 25 -154 73 -62 44
-80 51 -132 56 -33 3 -76 9 -95 15 -41 12 -87 12 -115 0z m-1359 -449 c21 4
41 -3 64 -22 l25 -20 -25 12 c-14 7 -54 15 -90 19 -64 6 -64 6 -30 16 20 6 38
7 41 2 3 -5 10 -8 15 -7z m-37 -77 c14 -12 -19 -1 -35 12 -18 14 -18 14 6 3
14 -6 27 -13 29 -15z m2767 11 c-11 -8 -25 -15 -30 -15 -6 1 0 7 14 15 32 19
40 18 16 0z m-187 -142 c-130 -128 -145 -140 -64 -54 33 35 69 73 80 85 17 18
86 75 92 76 1 0 -47 -48 -108 -107z m-2404 -15 l100 -103 -105 100 c-57 55
-106 101 -109 103 -2 1 0 2 5 2 5 0 54 -46 109 -102z m2205 -211 c0 -2 -10
-12 -22 -23 l-23 -19 19 23 c18 21 26 27 26 19z m-1930 -102 c30 -30 52 -55
49 -55 -2 0 -29 25 -59 55 -30 30 -52 55 -49 55 2 0 29 -25 59 -55z m1890 52
c0 -1 -26 -27 -57 -57 l-58 -55 55 58 c50 53 60 62 60 54z m-1863 -509 c-3 -7
-5 -2 -5 12 0 14 2 19 5 13 2 -7 2 -19 0 -25z m1710 -340 c-3 -8 -6 -5 -6 6
-1 11 2 17 5 13 3 -3 4 -12 1 -19z m-1600 -30 c-3 -8 -6 -5 -6 6 -1 11 2 17 5
13 3 -3 4 -12 1 -19z m1590 -20 c-3 -8 -6 -5 -6 6 -1 11 2 17 5 13 3 -3 4 -12
1 -19z"/>
<path d="M573 4156 c-32 -15 -47 -34 -18 -22 8 3 15 1 15 -4 0 -6 -9 -10 -20
-10 -11 0 -20 -4 -20 -9 0 -5 20 -8 45 -6 25 1 45 -2 45 -7 0 -10 -1 -11 128
28 50 15 90 29 88 31 -2 2 -55 6 -117 8 -86 4 -122 2 -146 -9z m97 -11 c-19
-7 -48 -13 -65 -13 -23 0 -20 2 14 9 24 5 46 11 49 14 3 3 12 5 21 4 9 0 0 -7
-19 -14z"/>
<path d="M4030 4160 c-38 -7 -37 -8 55 -35 90 -27 125 -34 125 -25 0 5 18 6
40 4 51 -5 53 13 3 21 -21 3 -68 14 -104 25 -36 11 -70 19 -75 19 -5 -1 -25
-5 -44 -9z"/>
<path d="M4165 4156 c39 -17 128 -29 120 -16 -8 13 -73 30 -115 30 l-35 -1 30
-13z"/>
<path d="M801 4112 c-14 -14 -21 -18 -18 -8 6 16 -4 22 -16 9 -4 -3 -19 -8
-33 -9 -26 -3 -74 -39 -74 -56 0 -11 39 9 68 35 20 19 22 19 22 3 0 -26 49
-13 75 19 23 28 37 33 29 10 -8 -19 26 -19 75 -1 46 16 28 26 -45 24 -47 -1
-63 -6 -83 -26z"/>
<path d="M3876 4131 c-7 -11 92 -36 102 -26 4 4 -2 13 -12 21 -22 16 -82 19
-90 5z"/>
<path d="M4002 4110 c23 -32 38 -38 38 -16 0 12 -40 46 -55 46 -3 0 4 -13 17
-30z"/>
<path d="M4048 4095 c5 -27 32 -35 32 -9 0 12 7 10 31 -10 35 -30 71 -37 48
-10 -17 21 -67 46 -79 39 -5 -3 -11 -1 -15 5 -12 19 -22 10 -17 -15z"/>
<path d="M393 4070 c-80 -39 -138 -92 -157 -145 -12 -30 -24 -125 -15 -120 4
3 19 35 34 72 26 66 70 124 110 145 11 6 1 -8 -22 -31 -43 -43 -84 -123 -45
-88 29 26 36 20 12 -10 -14 -18 -17 -29 -9 -34 6 -3 7 -8 2 -10 -5 -2 -27 -33
-47 -69 -27 -45 -39 -80 -42 -112 -1 -27 -1 -48 1 -48 5 0 177 209 214 260 36
49 26 67 -16 29 l-26 -24 27 38 c37 48 21 47 -46 -4 l-53 -40 60 57 c33 31 54
53 46 49 -9 -5 -12 -4 -8 2 4 6 32 21 62 34 30 12 55 29 55 37 0 8 -6 12 -14
9 -8 -3 -16 -2 -18 3 -2 5 -23 0 -48 -10 -45 -20 -42 -15 14 26 42 29 7 21
-71 -16z"/>
<path d="M4425 4048 c99 -63 118 -85 153 -173 27 -69 27 -70 30 -33 7 83 -56
171 -160 223 -103 51 -115 43 -23 -17z"/>
<path d="M811 4076 c-9 -10 -8 -15 4 -20 19 -7 42 2 49 20 7 19 -37 19 -53 0z"/>
<path d="M3976 4070 c13 -13 27 -18 37 -14 25 9 2 34 -31 34 l-26 0 20 -20z"/>
<path d="M550 4060 c0 -26 35 -26 75 0 l30 20 -52 0 c-46 0 -53 -3 -53 -20z"/>
<path d="M4206 4060 c38 -26 74 -26 74 -2 0 16 -9 19 -52 20 l-52 1 30 -19z"/>
<path d="M4300 4056 c0 -6 27 -23 60 -38 33 -15 59 -30 58 -35 -1 -4 22 -32
52 -60 30 -29 52 -53 48 -53 -4 0 -17 10 -30 23 -34 33 -79 67 -90 67 -5 0 5
-19 23 -42 l33 -43 -31 29 c-98 89 9 -79 149 -237 43 -47 43 -47 45 -20 3 40
-15 90 -53 151 -19 29 -34 60 -34 69 0 10 -19 38 -42 63 -24 25 -30 34 -13 19
59 -50 65 -53 65 -37 0 24 -79 107 -124 130 -45 23 -116 32 -116 14z m65 -6
c3 -6 -1 -7 -9 -4 -18 7 -21 14 -7 14 6 0 13 -4 16 -10z m116 -207 c13 -16 12
-17 -3 -4 -17 13 -22 21 -14 21 2 0 10 -8 17 -17z m80 -110 c13 -16 12 -17 -3
-4 -17 13 -22 21 -14 21 2 0 10 -8 17 -17z"/>
<path d="M588 4023 c-28 -18 -37 -31 -44 -70 -3 -18 -1 -21 13 -16 29 10 83
65 83 85 0 22 -17 23 -52 1z"/>
<path d="M673 4018 c-25 -28 -44 -90 -32 -109 6 -11 15 -7 39 16 16 16 30 26
30 22 0 -8 -52 -59 -74 -72 -20 -12 -46 -103 -46 -164 0 -38 2 -42 16 -30 8 7
25 31 36 53 27 52 80 215 73 225 -2 5 7 19 20 31 35 33 32 50 -8 50 -22 0 -41
-8 -54 -22z"/>
<path d="M4070 4026 c0 -6 25 -38 55 -71 42 -45 58 -56 64 -46 11 17 -3 68
-28 101 -13 18 -28 25 -55 26 -21 1 -36 -4 -36 -10z"/>
<path d="M4190 4022 c0 -22 63 -82 86 -82 20 0 9 37 -20 66 -11 12 -31 25 -43
29 -18 5 -23 2 -23 -13z"/>
<path d="M492 4010 c-21 -20 -30 -50 -14 -50 18 0 73 42 69 53 -6 20 -31 19
-55 -3z"/>
<path d="M4286 4022 c-2 -4 -2 -13 2 -18 9 -13 54 -44 64 -44 16 0 7 27 -15
48 -24 23 -42 28 -51 14z"/>
<path d="M777 3988 c-14 -18 -34 -51 -45 -73 -34 -68 -47 -225 -19 -225 13 0
64 72 92 130 10 19 33 56 51 83 19 26 32 47 29 47 -4 0 -23 -8 -45 -19 -33
-16 -40 -16 -44 -4 -3 8 -6 15 -6 16 0 1 16 3 35 3 37 1 65 18 65 40 0 20 -16
25 -45 14 -23 -9 -26 -8 -21 5 10 28 -22 16 -47 -17z m16 -103 c-3 -9 -8 -14
-10 -11 -3 3 -2 9 2 15 9 16 15 13 8 -4z"/>
<path d="M4015 4000 c18 -20 18 -20 -19 -5 -39 16 -56 13 -56 -10 0 -20 49
-43 83 -39 23 2 26 0 17 -11 -8 -10 -7 -21 4 -44 9 -16 16 -34 16 -38 -1 -4
-10 9 -21 29 -12 25 -32 43 -55 53 -49 20 -50 20 -19 -17 14 -17 41 -61 60
-97 38 -76 74 -125 94 -129 26 -5 10 155 -22 220 -29 59 -69 108 -88 108 -7 0
-5 -8 6 -20z"/>
<path d="M465 3909 c-40 -44 -63 -92 -69 -139 -7 -58 30 -26 92 81 34 58 43
99 22 99 -4 0 -24 -18 -45 -41z"/>
<path d="M4114 3940 c2 -8 16 -51 30 -95 30 -90 64 -156 85 -163 11 -4 13 6 8
49 -8 88 -27 139 -58 154 -15 8 -37 27 -49 42 -12 15 -19 21 -16 13z"/>
<path d="M4308 3933 c-6 -31 110 -208 126 -192 3 2 0 26 -6 52 -6 32 -24 66
-51 100 -47 57 -64 66 -69 40z"/>
<path d="M605 3930 c-3 -5 -14 -10 -23 -10 -23 0 -71 -45 -83 -78 -6 -15 -10
-29 -9 -31 1 -2 -2 -7 -8 -10 -16 -11 -42 -103 -42 -150 l0 -45 31 30 c70 66
138 192 145 267 3 38 0 45 -11 27z m-25 -37 c-6 -10 -22 -35 -34 -57 -14 -22
-26 -34 -30 -27 -4 6 -2 11 3 11 6 0 11 5 11 11 0 5 12 26 28 45 29 37 39 44
22 17z"/>
<path d="M4215 3899 c3 -24 9 -45 14 -47 6 -2 8 -9 5 -17 -3 -7 -1 -16 5 -20
6 -3 11 -14 11 -24 0 -9 9 -27 20 -39 11 -12 20 -25 20 -30 0 -13 80 -102 91
-102 22 0 -8 163 -34 181 -5 3 -9 10 -9 15 -1 24 -20 53 -52 82 -20 18 -39 32
-42 32 -3 0 5 -18 17 -40 13 -22 26 -40 30 -40 14 0 30 -63 19 -74 -8 -8 -10
-7 -5 4 3 9 -13 43 -36 80 -56 88 -59 90 -54 39z"/>
<path d="M860 3888 c-11 -18 -20 -40 -21 -48 0 -8 -2 -23 -4 -32 -2 -10 1 -18
6 -18 6 0 7 -5 3 -11 -4 -8 -11 -4 -19 11 -12 22 -13 21 -33 -31 -11 -30 -27
-99 -36 -154 -9 -55 -24 -130 -33 -168 -14 -56 -15 -69 -3 -80 10 -10 11 -9 5
2 -5 9 -4 12 3 7 17 -10 60 43 93 114 16 35 31 71 33 80 2 8 6 23 11 33 4 9 5
27 2 38 -3 12 -3 18 1 15 3 -4 21 26 39 65 18 40 49 91 68 115 29 35 32 44 20
54 -19 16 -76 -27 -111 -84 -14 -22 -24 -33 -21 -24 3 9 1 19 -6 21 -7 2 6 25
33 57 24 30 37 51 27 47 -10 -4 -16 -2 -14 5 5 26 -24 16 -43 -14z m-20 -205
c-11 -17 -11 -17 -6 0 3 10 6 24 7 30 0 9 2 9 5 0 3 -7 0 -20 -6 -30z m-10
-54 c-10 -34 -20 -50 -20 -31 0 14 18 62 24 62 3 0 1 -14 -4 -31z"/>
<path d="M3918 3908 c-14 -10 -12 -17 25 -60 22 -26 43 -48 48 -48 11 0 -7 67
-25 95 -18 28 -23 29 -48 13z m23 -25 c13 -16 12 -17 -3 -4 -17 13 -22 21 -14
21 2 0 10 -8 17 -17z"/>
<path d="M3831 3876 c-8 -10 -6 -17 9 -31 28 -26 75 -102 95 -157 10 -26 21
-45 26 -42 5 3 6 -2 3 -10 -13 -35 66 -216 113 -260 40 -37 49 -19 30 56 -9
35 -23 107 -32 160 -25 157 -53 233 -69 191 -5 -12 -9 -14 -18 -5 -25 25 -26
10 -4 -55 30 -90 40 -141 25 -126 -11 11 -14 25 -18 81 -1 7 -6 10 -13 6 -7
-4 -8 -3 -4 5 13 20 -25 111 -60 146 -47 47 -69 58 -83 41z"/>
<path d="M1035 3848 c-28 -80 -19 -148 20 -148 29 0 41 16 49 67 5 36 3 44
-14 53 -21 11 -22 10 -34 -35 -3 -11 -4 -1 -2 22 4 41 -9 69 -19 41z"/>
<path d="M3778 3855 c-3 -4 -4 -23 -1 -44 3 -21 1 -41 -4 -44 -5 -3 -8 6 -5
22 5 34 -11 47 -32 26 -10 -11 -13 -26 -9 -53 7 -44 19 -62 42 -62 28 0 41 22
41 70 -1 44 -20 96 -32 85z"/>
<path d="M145 3799 c-93 -116 -121 -165 -82 -142 18 10 127 141 127 153 0 5 3
15 6 24 12 30 -11 15 -51 -35z"/>
<path d="M4637 3844 c-15 -15 55 -119 117 -176 55 -51 29 17 -33 86 -20 22
-46 53 -58 68 -11 15 -23 25 -26 22z"/>
<path d="M962 3791 c-46 -67 -77 -157 -96 -280 -10 -58 -31 -140 -48 -183 -17
-43 -28 -81 -25 -85 4 -3 19 -1 33 6 15 6 28 10 31 8 2 -2 -11 -10 -29 -18
-18 -7 -36 -18 -40 -23 -16 -23 -6 43 17 117 14 43 25 90 25 104 0 25 -2 24
-28 -18 -16 -24 -36 -50 -45 -57 -8 -7 -18 -32 -22 -55 -4 -23 -16 -69 -27
-102 -11 -33 -21 -81 -23 -106 -2 -41 0 -46 16 -42 26 7 113 99 166 174 47 69
55 92 21 63 -19 -15 -18 -13 3 11 50 58 57 74 49 111 -4 19 -4 34 1 34 5 0 9
-13 9 -30 0 -16 4 -30 10 -30 16 0 33 41 66 165 23 87 29 122 21 127 -20 13
-35 9 -41 -9 -2 -10 -2 -2 1 19 6 41 -4 81 -17 73 -22 -14 -50 -139 -50 -223
0 -47 -3 -83 -6 -79 -4 3 -6 50 -6 104 1 106 14 157 56 220 15 21 26 41 26 45
0 19 -18 4 -48 -41z m35 -173 c-3 -7 -5 -2 -5 12 0 14 2 19 5 13 2 -7 2 -19 0
-25z m-7 -60 c0 -18 -2 -20 -9 -8 -6 8 -7 18 -5 22 9 14 14 9 14 -14z"/>
<path d="M3826 3825 c5 -11 18 -35 31 -54 13 -19 28 -52 35 -75 13 -48 14
-213 0 -273 -9 -40 -8 -46 26 -90 20 -27 28 -42 19 -34 -56 45 57 -120 131
-193 84 -81 100 -49 52 99 -11 33 -22 75 -25 92 -3 18 -26 63 -51 100 l-46 68
7 -40 c3 -22 15 -69 26 -104 10 -35 19 -73 19 -85 0 -12 7 -33 16 -46 9 -15 4
-12 -13 8 -15 18 -32 32 -38 32 -5 1 -23 12 -40 27 -21 18 -23 21 -5 9 59 -39
79 -26 53 33 -26 61 -50 144 -57 196 -16 135 -69 276 -123 327 -22 20 -23 21
-17 3z"/>
<path d="M162 3738 c-30 -39 -43 -76 -23 -64 12 8 64 97 59 102 -2 2 -19 -15
-36 -38z"/>
<path d="M1116 3758 c-12 -47 -8 -61 19 -56 l25 5 -24 -22 c-30 -27 -77 -120
-79 -157 -1 -15 -5 -28 -8 -28 -4 0 -9 -17 -13 -37 -3 -21 -24 -69 -46 -107
-22 -38 -44 -86 -49 -107 -8 -36 -8 -37 15 -29 13 5 48 26 79 46 44 30 67 55
109 123 52 85 91 161 84 165 -1 1 -17 6 -35 13 l-32 11 -17 -50 c-21 -65 -28
-56 -8 12 9 29 13 61 11 71 -3 12 0 19 9 19 8 0 14 -7 14 -15 0 -8 11 -22 25
-31 21 -14 31 -15 51 -5 34 15 35 15 32 -16 -2 -22 2 -29 20 -31 16 -2 22 -10
22 -27 0 -30 27 -57 50 -50 16 5 17 -1 12 -63 -3 -46 -1 -72 7 -76 13 -9 58
40 67 73 8 29 -17 50 -28 23 -5 -13 -7 -10 -7 10 -1 26 -37 73 -133 170 -21
21 -35 38 -32 38 3 0 -9 18 -26 40 -17 22 -36 40 -40 40 -5 0 -12 -16 -16 -35
-3 -19 -11 -35 -16 -35 -6 0 -7 11 -3 28 14 53 13 77 -3 95 -20 23 -28 22 -36
-5z m2 -300 c-3 -13 -8 -20 -38 -58 -14 -18 -12 -11 6 23 25 46 36 59 32 35z"/>
<path d="M3677 3762 c-9 -10 -17 -21 -17 -25 0 -12 32 -37 47 -37 12 0 14 7 9
32 -9 44 -19 52 -39 30z"/>
<path d="M4630 3775 c0 -13 62 -106 67 -101 9 8 -7 41 -37 76 -17 19 -30 30
-30 25z"/>
<path d="M3826 3746 c-3 -13 1 -53 9 -88 8 -35 14 -79 14 -98 -1 -30 -3 -28
-10 15 -16 102 -20 115 -32 115 -32 -1 -37 -15 -21 -65 8 -27 17 -61 19 -75
16 -91 72 -190 74 -132 1 9 3 44 6 77 2 37 -1 65 -8 74 -9 12 -9 13 1 7 19
-11 15 46 -9 117 -25 75 -34 87 -43 53z"/>
<path d="M359 3747 c-19 -14 -49 -110 -56 -182 -5 -46 -4 -49 11 -36 22 18 43
59 66 125 13 40 15 57 6 78 -9 22 -14 24 -27 15z"/>
<path d="M4444 3726 c-9 -20 -6 -37 16 -95 29 -73 46 -101 61 -101 20 0 -16
173 -44 208 -14 17 -21 15 -33 -12z"/>
<path d="M3617 3692 c-10 -11 -14 -27 -11 -42 5 -19 3 -22 -5 -10 -8 12 -13
12 -23 2 -9 -9 -9 -12 3 -13 7 0 4 -4 -8 -9 -31 -13 -29 -25 6 -40 54 -22 97
23 80 84 -12 42 -23 49 -42 28z"/>
<path d="M639 3667 c-13 -18 -23 -35 -21 -39 2 -9 -28 1 -45 15 -15 11 -16 7
-13 -48 1 -22 6 -43 12 -46 6 -4 6 -9 1 -12 -6 -4 -7 -28 -2 -59 20 -134 37
-235 44 -251 7 -17 8 -17 21 1 7 11 18 40 24 65 14 64 25 393 13 400 -6 4 -21
-8 -34 -26z m-32 -99 c-3 -8 -6 -5 -6 6 -1 11 2 17 5 13 3 -3 4 -12 1 -19z"/>
<path d="M1076 3665 c-23 -47 -15 -55 14 -15 15 21 19 35 13 41 -7 7 -16 -2
-27 -26z"/>
<path d="M3671 3679 c6 -12 11 -38 11 -58 -1 -50 23 -126 58 -189 16 -30 23
-49 16 -43 -7 6 -16 8 -20 4 -4 -4 -4 0 -1 9 3 8 -1 22 -9 31 -9 9 -16 19 -16
23 0 4 -9 33 -21 64 l-21 58 -31 -12 c-18 -6 -34 -11 -35 -12 -9 -5 78 -164
104 -192 7 -6 15 -21 19 -31 7 -23 132 -111 157 -111 24 0 17 24 -41 135 -28
53 -51 106 -51 119 0 17 -9 27 -30 36 -17 7 -29 15 -26 17 2 3 14 0 25 -7 21
-11 31 3 11 15 -6 4 -8 10 -5 15 6 9 -40 105 -63 133 -22 26 -46 23 -31 -4z
m124 -329 c10 -11 16 -20 13 -20 -3 0 -13 9 -23 20 -10 11 -16 20 -13 20 3 0
13 -9 23 -20z"/>
<path d="M3727 3694 c-6 -10 32 -78 40 -70 2 2 -4 21 -15 42 -10 20 -22 33
-25 28z"/>
<path d="M4157 3693 c-10 -16 -4 -138 7 -145 8 -6 7 -8 -1 -8 -13 0 -12 -69 3
-210 9 -93 41 -134 56 -73 13 54 38 229 44 313 7 83 6 85 -12 68 -22 -19 -28
-16 -66 30 -15 17 -29 29 -31 25z m67 -106 c4 -19 3 -26 -4 -22 -5 3 -10 18
-10 32 0 32 5 28 14 -10z"/>
<path d="M61 3640 c-25 -21 -37 -42 -47 -87 -16 -69 -18 -163 -4 -163 10 0 28
36 35 70 10 50 37 142 50 174 18 43 11 45 -34 6z"/>
<path d="M4735 3633 c9 -20 24 -72 35 -115 38 -146 62 -170 56 -55 -6 102 -23
154 -58 175 -15 9 -28 20 -28 24 0 4 -5 8 -10 8 -6 0 -4 -15 5 -37z"/>
<path d="M722 3651 c-15 -9 -18 -24 -32 -160 -13 -136 -13 -212 1 -188 6 9 8
26 4 36 -3 10 4 56 15 102 24 102 39 208 30 214 -3 2 -12 0 -18 -4z"/>
<path d="M4087 3621 c2 -20 14 -81 26 -136 12 -55 22 -116 23 -135 2 -55 3
-62 12 -56 7 4 -10 253 -23 322 -3 20 -13 34 -24 37 -17 4 -19 0 -14 -32z"/>
<path d="M255 3620 c-26 -26 -29 -35 -29 -92 1 -84 13 -176 24 -183 5 -3 16 5
24 18 12 18 15 52 15 155 -1 73 -2 132 -3 131 0 0 -14 -13 -31 -29z m6 -43
c-10 -9 -11 -8 -5 6 3 10 9 15 12 12 3 -3 0 -11 -7 -18z m-4 -59 c-3 -7 -5 -2
-5 12 0 14 2 19 5 13 2 -7 2 -19 0 -25z"/>
<path d="M4543 3510 c2 -102 6 -141 16 -154 12 -14 16 -15 22 -3 13 23 20 78
21 161 0 74 -1 79 -30 106 l-30 27 1 -137z m37 55 c0 -5 -5 -3 -10 5 -5 8 -10
20 -10 25 0 6 5 3 10 -5 5 -8 10 -19 10 -25z m-3 -52 c-3 -10 -5 -4 -5 12 0
17 2 24 5 18 2 -7 2 -21 0 -30z"/>
<path d="M4673 3623 c3 -15 8 -37 12 -48 3 -11 -4 0 -16 25 l-21 45 -8 -28
c-5 -15 -4 -42 1 -60 13 -44 9 -227 -6 -325 -7 -44 -24 -113 -38 -153 -32 -91
-53 -203 -55 -289 -3 -75 10 -109 27 -69 143 346 183 488 184 664 1 107 -31
233 -65 254 -20 12 -21 11 -15 -16z m24 -315 c-3 -8 -6 -5 -6 6 -1 11 2 17 5
13 3 -3 4 -12 1 -19z m-20 -130 c-3 -8 -6 -5 -6 6 -1 11 2 17 5 13 3 -3 4 -12
1 -19z"/>
<path d="M133 3633 c-16 -6 -51 -121 -58 -188 -8 -79 14 -241 47 -350 26 -85
116 -331 137 -374 26 -54 39 49 21 169 -6 41 -24 118 -40 170 -16 52 -35 120
-41 150 -12 54 -17 294 -9 377 5 45 -5 66 -20 43 -7 -10 -10 -11 -10 -2 0 12
-6 14 -27 5z"/>
<path d="M389 3625 c-1 -8 -2 -21 -3 -27 -4 -22 5 -29 20 -17 19 16 18 59 -1
59 -8 0 -16 -7 -16 -15z"/>
<path d="M4410 3622 c0 -10 6 -26 13 -36 11 -15 15 -16 19 -5 7 18 -8 59 -22
59 -5 0 -10 -8 -10 -18z"/>
<path d="M488 3599 c-10 -5 -19 -20 -19 -32 -1 -17 -2 -18 -6 -4 -5 19 -28 23
-38 6 -8 -12 -8 -131 0 -172 3 -15 17 -57 30 -93 13 -36 20 -62 15 -59 -15 9
-12 -9 10 -59 10 -25 17 -46 14 -46 -9 0 -46 96 -60 160 -18 77 -34 100 -34
48 0 -80 21 -147 92 -284 52 -102 76 -140 86 -136 12 4 13 19 9 68 -7 68 -49
203 -67 214 -7 5 -10 69 -8 203 2 109 1 197 -2 197 -3 0 -13 -5 -22 -11z"/>
<path d="M525 3505 c-7 -104 3 -165 26 -165 5 0 9 -5 9 -12 0 -6 -8 -4 -19 7
-20 17 -20 16 -16 -38 5 -66 32 -137 51 -137 17 0 19 83 4 145 -6 22 -12 69
-14 105 -2 36 -7 77 -11 92 -4 15 -8 43 -9 63 -5 69 -14 44 -21 -60z"/>
<path d="M4282 3540 c-22 -136 -24 -152 -18 -176 9 -35 24 -29 37 14 8 27 8
68 2 138 l-8 99 -13 -75z"/>
<path d="M4315 3563 c4 -27 7 -114 6 -195 -1 -82 2 -148 5 -148 4 0 13 8 21
18 13 15 13 15 3 -5 -6 -13 -17 -23 -24 -23 -8 0 -21 -11 -30 -25 -21 -31 -56
-167 -56 -216 0 -51 26 -47 54 10 13 25 39 75 59 111 50 90 67 143 73 225 4
64 3 68 -10 45 -7 -14 -17 -45 -21 -70 -8 -48 -52 -156 -60 -148 -3 3 2 19 11
37 8 17 17 50 19 74 2 23 11 60 20 82 22 50 34 229 16 239 -7 4 -18 2 -26 -4
-12 -10 -15 -10 -15 0 0 13 -29 39 -44 40 -4 0 -5 -21 -1 -47z"/>
<path d="M3472 3516 c-34 -41 -62 -82 -63 -92 0 -12 -3 -14 -6 -6 -4 10 -8 10
-19 1 -21 -18 -17 -38 16 -76 23 -26 30 -29 30 -16 0 15 2 16 11 3 8 -11 9 6
6 62 -3 61 -1 76 8 68 27 -23 67 25 52 63 -3 8 4 13 21 12 30 0 37 14 20 38
-12 16 -19 10 -76 -57z"/>
<path d="M351 3537 c-30 -33 -41 -77 -47 -191 -3 -66 -1 -103 7 -112 10 -12 9
-13 -5 -8 -16 6 -17 11 -19 71 -1 28 -4 32 -23 27 -19 -5 -24 0 -33 33 -6 21
-11 49 -12 63 -1 25 -1 25 -9 -3 -10 -33 -4 -119 20 -268 9 -61 58 -195 90
-247 48 -78 79 -5 74 173 -6 236 -15 479 -18 482 -1 2 -12 -8 -25 -20z"/>
<path d="M4457 3553 c-5 -8 -17 -289 -21 -508 -3 -144 24 -207 66 -153 39 50
120 299 103 316 -2 3 0 13 5 23 11 20 17 186 7 196 -4 3 -7 -2 -7 -13 0 -10
-5 -36 -11 -57 -8 -31 -14 -38 -30 -34 -24 7 -25 -19 -1 -47 17 -21 17 -21 -5
-2 -25 21 -29 16 -12 -16 8 -15 8 -19 0 -14 -6 4 -11 0 -11 -9 0 -9 -4 -14 -9
-11 -5 3 -14 -1 -22 -10 -7 -8 -22 -20 -33 -26 -12 -5 -5 4 15 21 36 30 37 31
38 111 1 44 -2 80 -6 80 -5 0 -9 20 -10 45 -2 44 -45 126 -56 108z"/>
<path d="M1225 3436 c-9 -50 -26 -111 -37 -136 -11 -25 -24 -57 -29 -72 -6
-24 -5 -28 12 -28 13 0 18 4 13 12 -4 7 -3 8 5 4 24 -15 134 102 124 132 -4
14 -3 15 6 2 8 -12 13 -8 26 22 19 48 19 48 -10 48 -14 0 -25 5 -25 10 0 6 -4
10 -10 10 -5 0 -10 -6 -10 -13 0 -22 -31 -119 -36 -114 -3 3 1 27 9 53 36 120
36 129 6 146 l-27 16 -17 -92z"/>
<path d="M3562 3511 c-20 -15 -23 -23 -17 -57 4 -21 13 -61 22 -87 8 -27 13
-50 10 -53 -6 -7 -30 57 -28 75 1 7 -2 10 -7 7 -5 -3 -7 6 -4 21 5 25 4 26
-18 10 -12 -8 -29 -13 -36 -10 -17 6 -17 5 -3 -36 12 -34 18 -37 39 -18 12 10
12 9 1 -5 -16 -22 -6 -40 56 -101 55 -53 93 -68 93 -36 0 23 -37 101 -54 111
-8 6 -7 8 1 8 8 0 10 7 6 17 -4 9 -14 52 -22 94 l-16 78 -23 -18z m79 -288
c13 -16 12 -17 -3 -4 -10 7 -18 15 -18 17 0 8 8 3 21 -13z"/>
<path d="M1171 3384 c-6 -14 -9 -30 -6 -35 4 -5 2 -9 -4 -9 -5 0 -11 -6 -14
-12 -2 -7 -3 -5 -2 5 2 9 0 17 -3 16 -14 -1 -63 -69 -67 -91 -2 -13 -6 -45
-10 -71 -4 -27 -8 -59 -11 -70 -2 -12 -6 -42 -9 -67 -3 -25 -9 -72 -13 -104
-11 -72 -6 -195 10 -250 l12 -41 7 35 c3 19 7 28 8 20 4 -32 62 162 85 285 14
72 28 144 32 162 6 28 4 31 -14 26 -11 -2 -23 0 -26 6 -15 23 -24 9 -30 -46
-14 -128 -19 -158 -22 -162 -9 -10 -3 90 10 179 17 110 38 178 30 95 l-5 -50
30 68 c17 38 28 73 25 78 -3 5 0 9 5 9 6 0 11 11 11 25 0 32 -14 32 -29 -1z
m-84 -451 c-3 -10 -5 -4 -5 12 0 17 2 24 5 18 2 -7 2 -21 0 -30z"/>
<path d="M3630 3392 c0 -10 3 -22 7 -26 4 -3 8 -16 10 -28 2 -12 15 -45 28
-72 l25 -51 -6 40 c-6 48 -26 108 -37 116 -5 3 -8 9 -8 13 3 18 0 26 -9 26 -5
0 -10 -8 -10 -18z"/>
<path d="M46 3342 c-19 -31 -4 -258 26 -402 41 -194 100 -329 209 -476 60 -82
74 -83 72 -8 -3 73 -49 195 -85 221 -9 7 -26 43 -38 80 -12 38 -33 97 -47 133
-57 144 -96 270 -112 364 -10 55 -21 95 -25 88z"/>
<path d="M3686 3343 c-3 -3 -1 -13 3 -22 12 -23 40 -157 46 -221 2 -30 7 -84
11 -120 3 -36 4 -63 1 -60 -6 6 -27 136 -34 215 -6 69 -7 72 -28 55 -8 -7 -22
-9 -31 -6 -13 5 -15 1 -11 -16 3 -13 17 -84 31 -158 27 -146 81 -325 89 -294
3 11 5 3 6 -15 2 -52 19 -26 27 39 13 105 12 135 -11 305 -3 28 -10 75 -15
105 -5 30 -12 72 -15 94 -5 37 -57 111 -69 99z m81 -565 c-3 -8 -6 -5 -6 6 -1
11 2 17 5 13 3 -3 4 -12 1 -19z"/>
<path d="M4766 3287 c-8 -85 -37 -185 -101 -352 -29 -77 -59 -160 -66 -185 -7
-25 -23 -56 -35 -70 -52 -57 -100 -211 -82 -259 7 -20 10 -21 24 -10 22 18
102 138 146 219 48 86 104 265 123 395 4 22 8 102 11 177 5 141 -8 196 -20 85z"/>
<path d="M1353 3310 c-17 -53 -23 -84 -29 -147 -3 -32 -7 -69 -10 -82 -4 -18
-1 -22 9 -18 11 4 13 0 10 -16 -4 -18 -3 -19 7 -7 8 12 9 6 4 -25 -11 -64 -23
-72 -42 -30 -17 37 -14 127 7 227 l18 88 -42 -38 c-24 -20 -46 -44 -49 -52 -6
-18 -13 -100 -21 -265 -4 -66 -13 -156 -21 -200 -7 -44 -14 -95 -14 -114 l0
-34 33 25 c80 62 126 161 166 363 22 112 35 222 25 212 -4 -3 -17 -37 -30 -74
-13 -37 -21 -52 -18 -33 3 19 19 69 35 110 35 90 35 97 7 96 -15 -1 -24 6 -28
24 -6 24 -7 24 -17 -10z m-16 -217 c-3 -10 -5 -4 -5 12 0 17 2 24 5 18 2 -7 2
-21 0 -30z"/>
<path d="M4255 3330 c-4 -6 -9 -48 -11 -93 -2 -45 -1 -76 2 -69 3 6 10 10 15
6 14 -8 37 56 41 114 4 50 -3 65 -18 41 -5 -8 -9 -8 -14 1 -6 9 -9 9 -15 0z"/>
<path d="M3457 3309 c-4 -14 -11 -20 -21 -16 -29 11 -27 -13 9 -107 19 -52 35
-103 34 -113 0 -10 -10 10 -22 44 -35 97 -40 87 -21 -37 2 -19 7 -51 10 -70 8
-63 54 -224 76 -270 22 -45 99 -130 118 -130 14 0 12 29 -5 129 -8 46 -18 150
-21 230 -4 80 -8 153 -10 161 -1 8 -3 29 -3 46 -1 23 -12 42 -43 72 -23 23
-44 39 -46 37 -2 -2 1 -26 7 -52 20 -82 22 -96 22 -158 1 -106 -36 -154 -54
-69 -6 31 -4 41 10 51 20 15 19 68 -2 182 -16 81 -29 105 -38 70z m20 -121
c-3 -8 -6 -5 -6 6 -1 11 2 17 5 13 3 -3 4 -12 1 -19z m10 -40 c-3 -8 -6 -5 -6
6 -1 11 2 17 5 13 3 -3 4 -12 1 -19z m10 -65 c-3 -10 -5 -2 -5 17 0 19 2 27 5
18 2 -10 2 -26 0 -35z"/>
<path d="M683 3273 c-7 -3 -13 -12 -13 -22 0 -9 -6 -25 -14 -36 -8 -11 -11
-34 -9 -59 5 -43 23 -75 23 -41 0 10 7 47 16 82 17 68 16 82 -3 76z"/>
<path d="M4130 3263 c0 -10 8 -45 18 -78 10 -33 17 -67 14 -75 -3 -11 -1 -12
7 -5 17 16 15 85 -3 127 -18 42 -36 58 -36 31z"/>
<path d="M1024 3233 c-18 -86 -68 -254 -75 -259 -12 -7 -11 -126 2 -221 11
-80 70 -233 109 -283 87 -112 118 -145 173 -187 34 -26 64 -50 67 -53 11 -14
40 -19 40 -7 -1 25 -48 125 -97 208 -29 47 -57 97 -62 112 -6 15 -15 27 -21
27 -5 0 -10 10 -10 23 0 12 -7 44 -15 71 -8 27 -15 63 -16 80 l-1 31 -19 -40
c-23 -49 -24 -100 -3 -140 9 -16 22 -45 30 -64 12 -29 12 -32 -1 -21 -8 6 -17
22 -21 33 -14 49 -29 74 -48 83 -16 7 -23 25 -33 79 -12 69 -18 231 -10 270 8
36 19 118 23 165 2 25 6 62 10 83 7 43 -12 52 -22 10z m137 -765 c11 -21 11
-22 -4 -9 -10 7 -17 17 -17 22 0 15 9 10 21 -13z"/>
<path d="M3788 3254 c-3 -5 -4 -18 -2 -29 1 -11 6 -51 9 -89 3 -38 8 -72 10
-77 19 -30 21 -236 4 -338 -6 -36 -12 -72 -12 -78 0 -12 -11 -17 -29 -14 -9 1
-38 -65 -38 -88 0 -9 -9 -22 -20 -29 -12 -7 -20 -23 -20 -39 0 -14 -3 -24 -6
-20 -4 3 -14 -2 -23 -11 -9 -10 -13 -13 -9 -7 31 49 98 199 98 218 0 13 -8 46
-17 73 -14 40 -18 44 -20 24 -4 -38 -37 -174 -43 -180 -12 -12 -138 -239 -158
-287 -25 -59 -26 -63 -11 -63 11 0 150 101 168 122 6 7 26 32 43 55 18 23 41
52 52 65 10 13 31 52 47 88 16 36 33 72 38 80 8 15 14 40 26 100 3 14 7 68 10
121 4 76 2 104 -12 135 -9 21 -18 44 -19 49 -1 6 -12 51 -25 100 -27 111 -34
131 -41 119z"/>
<path d="M890 3220 c-7 -13 -23 -87 -37 -164 -13 -78 -27 -157 -30 -176 -6
-33 -5 -34 13 -20 18 14 18 14 5 -3 -26 -33 -4 -28 24 5 34 40 85 152 88 190
1 15 5 28 8 28 9 0 29 82 29 114 0 24 -2 25 -27 15 -15 -6 -31 -16 -35 -22 -5
-8 -8 -5 -8 8 0 11 -4 26 -9 34 -7 11 -11 9 -21 -9z m27 -107 c-3 -10 -5 -2
-5 17 0 19 2 27 5 18 2 -10 2 -26 0 -35z"/>
<path d="M3915 3218 c-3 -13 -1 -46 3 -74 6 -37 5 -51 -3 -51 -7 0 -10 8 -7
19 2 10 1 33 -2 51 -5 25 -14 35 -37 44 l-31 12 5 -47 c11 -91 92 -289 133
-323 27 -22 38 3 25 54 -6 25 -18 95 -26 156 -14 98 -37 181 -50 181 -3 0 -7
-10 -10 -22z m75 -348 c6 -11 8 -20 6 -20 -3 0 -10 9 -16 20 -6 11 -8 20 -6
20 3 0 10 -9 16 -20z"/>
<path d="M8 3175 c-9 -62 1 -254 16 -315 7 -30 37 -129 65 -220 29 -91 71
-226 93 -300 23 -74 43 -137 45 -140 15 -18 23 43 20 160 l-3 135 -47 80 c-92
157 -145 320 -170 530 -11 91 -14 103 -19 70z"/>
<path d="M1444 3196 c-3 -9 -4 -51 0 -93 3 -43 5 -85 6 -93 0 -13 2 -13 9 -1
8 13 4 191 -5 200 -2 2 -6 -4 -10 -13z"/>
<path d="M4811 3175 c-6 -116 -42 -289 -81 -397 -16 -44 -57 -133 -91 -196
l-62 -117 1 -112 c1 -114 6 -153 22 -153 5 0 12 15 15 33 4 17 45 153 91 300
47 148 92 298 100 334 17 72 24 246 14 308 l-7 40 -2 -40z"/>
<path d="M589 3147 c-13 -17 -13 -27 -3 -66 11 -44 23 -136 24 -189 0 -13 4
-20 10 -17 6 4 8 9 6 13 -2 4 -7 67 -10 141 -3 74 -7 136 -9 137 -1 1 -9 -7
-18 -19z"/>
<path d="M811 3133 c-34 -38 -34 -39 -16 -138 18 -99 25 -107 30 -33 2 24 5
57 8 73 11 62 19 135 15 135 -2 0 -19 -17 -37 -37z"/>
<path d="M1200 3168 c0 -2 -3 -32 -6 -68 -3 -36 -1 -76 5 -90 8 -20 10 -6 10
68 1 50 -1 92 -4 92 -3 0 -5 -1 -5 -2z"/>
<path d="M3621 3079 c1 -60 4 -85 9 -68 8 29 4 148 -5 157 -3 3 -5 -37 -4 -89z"/>
<path d="M3985 3123 c3 -26 9 -64 12 -83 3 -19 5 -43 5 -53 -1 -11 4 -15 11
-10 9 5 9 3 1 -8 -6 -8 -8 -25 -4 -39 l7 -25 8 28 c4 15 5 38 3 52 -3 13 -1
26 4 27 5 2 12 22 15 44 5 36 1 44 -32 78 l-37 38 7 -49z"/>
<path d="M4220 3155 c0 -11 -3 -81 -6 -155 -7 -144 0 -174 10 -50 4 41 12 99
17 127 9 43 8 57 -5 75 -15 21 -16 21 -16 3z"/>
<path d="M422 3099 c-10 -24 -4 -76 22 -204 4 -18 -1 -12 -11 15 l-17 45 -7
-35 c-3 -19 -11 -47 -17 -63 -10 -24 -7 -37 28 -108 59 -120 71 -131 89 -78
23 67 -11 299 -62 420 l-15 34 -10 -26z"/>
<path d="M627 3048 c7 -142 24 -221 78 -358 29 -74 61 -163 70 -197 10 -35 24
-68 33 -75 14 -12 15 -5 8 57 -6 67 -30 151 -75 262 -24 60 -67 229 -74 288
-5 42 -25 95 -37 95 -4 0 -5 -33 -3 -72z"/>
<path d="M4179 3089 c-7 -17 -12 -39 -12 -48 1 -24 -33 -168 -56 -236 -11 -33
-36 -107 -56 -165 -36 -104 -59 -246 -37 -225 6 6 31 66 56 135 24 69 58 161
74 205 32 87 50 182 55 288 4 76 -4 92 -24 46z"/>
<path d="M4379 3083 c-65 -168 -86 -433 -33 -433 7 0 34 41 60 91 44 90 45 92
30 124 -9 18 -16 44 -17 57 0 19 -4 16 -20 -17 -22 -48 -24 -33 -5 44 14 51
21 116 17 149 -2 22 -21 13 -32 -15z m-2 -245 c-3 -8 -6 -5 -6 6 -1 11 2 17 5
13 3 -3 4 -12 1 -19z"/>
<path d="M1416 3045 c-10 -84 -34 -191 -53 -247 -22 -61 -10 -123 62 -343 73
-222 141 -364 182 -379 28 -11 10 172 -36 359 -21 88 -42 176 -46 195 -13 71
-13 71 -42 42 l-26 -26 -10 25 c-5 13 -9 96 -10 184 0 88 -3 180 -7 205 l-6
45 -8 -60z m73 -510 c-2 -17 -27 69 -27 90 0 11 6 -2 14 -30 7 -27 13 -54 13
-60z m8 -37 c-3 -8 -6 -5 -6 6 -1 11 2 17 5 13 3 -3 4 -12 1 -19z m110 -400
c-3 -8 -6 -5 -6 6 -1 11 2 17 5 13 3 -3 4 -12 1 -19z"/>
<path d="M3395 3009 c-4 -48 -5 -136 -2 -195 3 -75 0 -120 -9 -144 -7 -19 -18
-59 -24 -88 -7 -29 -14 -51 -16 -49 -3 2 1 31 9 63 12 57 12 60 -10 81 l-23
22 -4 -22 c-2 -12 -21 -92 -41 -177 -51 -214 -65 -292 -65 -361 0 -44 4 -59
14 -59 41 0 158 269 225 520 29 108 33 178 13 216 -13 23 -32 103 -39 164 -13
113 -19 119 -28 29z m-58 -511 c-3 -8 -6 -5 -6 6 -1 11 2 17 5 13 3 -3 4 -12
1 -19z m-100 -350 c-3 -8 -6 -5 -6 6 -1 11 2 17 5 13 3 -3 4 -12 1 -19z m-10
-50 c-3 -7 -5 -2 -5 12 0 14 2 19 5 13 2 -7 2 -19 0 -25z"/>
<path d="M741 3059 c-13 -10 -29 -19 -37 -19 -22 0 -17 -46 20 -191 32 -122
51 -177 101 -294 31 -73 127 -172 183 -189 31 -10 29 10 -13 150 -54 178 -67
243 -74 384 -1 8 -12 -1 -25 -21 -14 -20 -35 -43 -49 -52 -24 -15 -24 -15 -37
23 -8 23 -18 37 -24 33 -8 -4 -8 -3 0 6 12 13 7 71 -7 71 -4 0 -6 15 -3 33 3
17 1 44 -3 59 l-8 26 -24 -19z m97 -284 c-3 -3 -9 2 -12 12 -6 14 -5 15 5 6 7
-7 10 -15 7 -18z m63 -158 c21 -48 34 -85 30 -83 -4 3 -20 36 -36 73 -16 37
-31 70 -34 73 -3 3 -7 16 -8 30 -2 14 0 19 4 10 3 -8 23 -54 44 -103z"/>
<path d="M4056 3035 c-4 -25 -3 -53 3 -64 13 -24 14 -42 2 -22 -7 11 -12 3
-21 -30 -6 -24 -16 -60 -22 -80 l-10 -36 -30 28 c-17 15 -39 40 -49 56 l-19
28 0 -25 c-3 -104 -29 -233 -80 -393 -17 -54 -30 -107 -28 -118 3 -20 4 -20
48 4 50 27 154 142 146 162 -3 8 1 19 9 25 17 14 72 155 77 196 1 16 5 31 8
34 9 8 50 185 50 214 0 15 -6 26 -14 26 -7 0 -25 9 -39 20 l-25 20 -6 -45z
m-66 -282 c-11 -17 -11 -17 -6 0 3 10 6 24 7 30 0 9 2 9 5 0 3 -7 0 -20 -6
-30z m-14 -52 c-1 -16 -7 -35 -13 -43 -6 -7 -27 -48 -46 -90 -20 -43 -38 -78
-41 -78 -3 0 12 37 33 83 21 45 43 99 50 120 15 45 20 47 17 8z"/>
<path d="M1166 2969 c-13 -62 -18 -224 -8 -249 8 -22 11 -15 22 50 16 90 17
189 3 214 -9 16 -11 14 -17 -15z"/>
<path d="M3645 2965 c-3 -16 -9 -36 -11 -43 -4 -13 23 -213 30 -219 17 -17 15
203 -3 262 l-8 30 -8 -30z"/>
<path d="M505 2950 c4 -12 13 -57 20 -99 12 -68 17 -79 51 -108 47 -42 57 -41
50 2 -15 95 -28 129 -59 158 -18 17 -35 30 -39 29 -5 -1 -8 4 -8 12 0 8 -5 18
-11 22 -8 4 -9 -1 -4 -16z"/>
<path d="M4312 2949 c-21 -57 -20 -55 -21 -37 -1 13 -7 10 -30 -11 -23 -21
-33 -44 -45 -102 -19 -94 -9 -106 42 -49 34 36 41 51 46 102 4 33 12 71 17 85
5 14 7 28 5 31 -3 3 -9 -6 -14 -19z"/>
<path d="M306 2823 c-14 -120 -12 -133 41 -243 27 -58 58 -112 68 -120 17 -14
18 -11 12 70 -7 102 -47 245 -83 300 -15 22 -28 40 -29 40 -2 0 -6 -21 -9 -47z"/>
<path d="M4476 2811 c-33 -62 -65 -183 -73 -280 -8 -103 9 -92 77 48 52 107
55 116 52 178 -3 47 -7 62 -14 52 -6 -10 -7 -4 -3 19 10 47 -8 39 -39 -17z"/>
<path d="M643 2775 c2 -22 0 -50 -4 -61 -8 -24 15 -111 91 -338 51 -149 148
-351 236 -486 47 -73 127 -231 120 -238 -3 -2 -17 20 -32 50 -40 80 -105 187
-118 196 -6 4 -35 37 -65 75 -38 49 -59 67 -76 67 -30 0 -44 14 -107 109 -29
42 -71 103 -95 135 -24 33 -60 88 -80 124 -78 139 -49 -16 33 -181 80 -158
206 -316 254 -318 24 -1 25 -1 2 -7 -21 -7 -18 -12 49 -92 40 -49 50 -63 22
-34 -26 28 -70 76 -96 108 -29 33 -53 54 -60 50 -7 -4 -9 -4 -5 1 9 10 -42 76
-53 69 -5 -3 -9 -1 -9 5 0 9 -108 183 -130 208 -5 7 -10 18 -10 26 0 7 -4 17
-8 23 -9 10 -25 58 -41 120 -10 37 -14 41 -36 36 -14 -2 -25 -8 -25 -11 0 -4
11 -39 24 -78 29 -84 120 -252 185 -342 25 -34 52 -74 59 -87 7 -13 17 -24 21
-24 4 0 12 -10 18 -22 10 -21 209 -294 253 -345 10 -13 17 -23 14 -23 -2 0 7
-23 21 -51 58 -113 93 -340 95 -616 0 -50 55 16 84 101 20 59 46 228 46 301 0
65 -82 315 -103 315 -4 0 -5 4 -2 10 3 5 -3 27 -14 50 -10 22 -16 40 -12 40 4
0 21 -32 36 -70 16 -39 32 -66 35 -59 4 6 7 -2 7 -18 1 -33 104 -335 124 -361
16 -19 31 -32 40 -32 14 0 30 99 30 180 -1 155 -25 263 -116 532 -38 112 -50
135 -100 194 -99 116 -249 354 -274 436 -7 20 -18 41 -25 47 -10 9 -13 -1 -15
-47 -1 -53 3 -64 60 -162 113 -195 140 -245 125 -230 -8 8 -26 35 -39 60 -59
112 -157 274 -171 282 -8 5 -26 45 -40 91 -14 45 -48 138 -76 207 -39 97 -49
116 -47 85z m100 -782 c-7 -2 -19 -2 -25 0 -7 3 -2 5 12 5 14 0 19 -2 13 -5z
m329 -62 c-5 -12 -8 -10 -13 9 -12 42 -9 56 5 31 8 -14 11 -32 8 -40z m38 -36
c7 -9 8 -15 2 -15 -5 0 -12 7 -16 15 -3 8 -4 15 -2 15 2 0 9 -7 16 -15z m30
-65 c0 -11 -2 -20 -4 -20 -2 0 -6 9 -9 20 -3 11 -1 20 4 20 5 0 9 -9 9 -20z
m70 -105 c0 -10 -40 9 -44 21 -4 11 0 11 19 -2 14 -9 25 -18 25 -19z m-246
-44 c-3 -3 -15 6 -27 18 l-22 24 27 -19 c14 -10 24 -21 22 -23z m239 21 c14
-15 15 -19 2 -19 -8 0 -12 4 -9 9 3 4 0 8 -5 8 -6 0 -11 5 -11 10 0 14 5 13
23 -8z m-230 -47 c4 -8 2 -17 -3 -20 -6 -4 -10 3 -10 14 0 25 6 27 13 6z m246
-30 c0 -5 -4 -3 -9 5 -5 8 -9 22 -9 30 0 16 17 -16 18 -35z m-193 -37 c1 -9 5
-26 9 -39 10 -31 5 -25 -30 36 -28 48 -28 49 -5 34 13 -8 24 -22 26 -31z m213
-23 c0 -5 -4 -3 -9 5 -5 8 -9 22 -9 30 0 16 17 -16 18 -35z m-115 -253 c3 -5
-1 -9 -9 -9 -8 0 -15 4 -15 9 0 4 4 8 9 8 6 0 12 -4 15 -8z"/>
<path d="M4174 2783 c-4 -10 -30 -81 -59 -158 -29 -77 -58 -158 -64 -179 -6
-22 -20 -49 -31 -60 -19 -19 -180 -289 -180 -301 0 -3 -5 -11 -10 -18 -6 -7
-18 -21 -26 -32 -23 -29 43 91 125 230 66 110 71 123 70 172 -1 29 -5 53 -9
53 -4 0 -22 -35 -41 -77 -38 -86 -200 -336 -277 -426 -34 -40 -55 -76 -68
-120 -10 -34 -17 -64 -15 -66 1 -2 -2 -7 -7 -10 -10 -7 -44 -103 -41 -117 1
-5 -1 -18 -5 -29 -25 -65 -34 -94 -40 -125 -3 -19 -9 -46 -12 -60 -22 -98 -11
-360 15 -360 25 0 59 66 108 207 30 87 55 170 56 185 1 14 5 24 10 21 4 -2 10
4 13 14 34 97 132 298 180 368 43 64 144 254 183 345 48 111 151 452 141 469
-4 9 -6 33 -3 54 5 38 -3 50 -13 20z m-387 -793 c-2 -11 -6 -23 -10 -26 -4 -4
-7 -21 -8 -38 0 -26 -2 -28 -8 -11 -8 19 -9 18 -21 -7 -7 -16 -19 -28 -26 -28
-8 0 -4 10 10 25 12 13 31 42 41 65 20 44 26 50 22 20z m0 -62 c-3 -8 -6 -5
-6 6 -1 11 2 17 5 13 3 -3 4 -12 1 -19z m-89 -108 c-11 -28 -22 -49 -24 -47
-4 3 18 67 29 85 17 26 15 10 -5 -38z m-35 -77 c-12 -31 -33 -68 -33 -59 0 5
-10 1 -22 -10 -13 -10 -7 -2 11 19 19 20 31 37 27 37 -5 0 -3 7 4 15 16 20 21
19 13 -2z m-58 -158 c-29 -68 -29 -58 0 30 11 32 21 52 23 44 1 -8 -9 -41 -23
-74z"/>
<path d="M550 2681 c-9 -35 -8 -53 10 -117 27 -96 20 -107 -10 -15 -18 57 -25
69 -43 68 -12 0 -29 3 -38 7 -15 6 -16 2 -8 -41 16 -88 84 -214 191 -355 32
-42 67 -93 79 -112 11 -20 26 -33 31 -30 19 12 0 116 -51 284 -58 193 -103
306 -130 333 -19 20 -20 20 -31 -22z"/>
<path d="M1303 2687 l-23 -33 19 -64 c27 -93 54 -160 64 -160 4 0 6 -4 3 -9
-3 -5 6 -31 20 -57 36 -67 106 -226 101 -230 -2 -2 -14 14 -26 36 -12 22 -24
40 -25 40 -2 0 -2 -12 0 -27 4 -28 4 -28 -5 -3 -5 14 -6 35 -4 46 3 12 0 25
-6 28 -6 4 -11 18 -11 30 0 25 -22 51 -33 39 -4 -3 -7 6 -7 21 0 15 -11 51
-24 79 -30 62 -73 175 -78 201 -3 16 -8 14 -42 -17 l-40 -35 29 -63 c15 -35
38 -80 50 -99 68 -109 100 -199 75 -215 -9 -6 18 -56 40 -75 26 -22 115 -165
159 -254 59 -119 71 -123 71 -22 0 63 -21 156 -50 220 -116 257 -161 383 -220
614 -6 23 -12 42 -13 42 -1 0 -12 -15 -24 -33z m217 -631 c0 -12 -5 -7 -19 24
-11 24 -11 24 3 6 9 -11 16 -24 16 -30z"/>
<path d="M4243 2694 c-31 -44 -68 -141 -123 -325 -56 -187 -74 -294 -46 -283
9 3 16 10 16 14 0 4 36 56 79 116 134 183 201 313 201 389 0 22 -3 24 -19 15
-11 -5 -26 -8 -33 -5 -9 4 -22 -20 -41 -76 -34 -95 -45 -101 -17 -8 29 94 31
112 17 154 l-13 38 -21 -29z"/>
<path d="M3486 2656 c-9 -30 -17 -66 -18 -80 -1 -14 -5 -26 -8 -26 -3 0 -12
-21 -19 -47 -7 -27 -17 -61 -22 -77 -7 -22 -6 -32 3 -38 10 -6 8 -8 -4 -8 -9
0 -20 -10 -23 -22 -4 -13 -39 -97 -78 -188 -77 -182 -97 -247 -97 -330 0 -97
13 -92 70 23 28 59 51 109 51 111 0 3 9 16 19 28 59 70 138 188 129 193 -10 7
-10 75 1 75 3 0 14 21 24 48 10 26 25 54 32 62 14 18 68 122 84 165 11 28 9
32 -26 61 l-37 32 -24 -67 c-13 -36 -27 -77 -30 -91 -3 -14 -17 -42 -30 -62
-12 -21 -23 -51 -23 -68 0 -18 -4 -29 -10 -25 -5 3 -15 -7 -21 -22 -6 -15 -16
-38 -21 -50 -6 -11 -8 -26 -4 -31 3 -6 2 -21 -3 -34 -9 -20 -10 -21 -10 -3 -1
15 -7 10 -26 -20 -13 -22 -25 -37 -25 -33 0 15 111 260 122 268 3 3 25 61 47
128 42 126 42 142 7 171 -12 10 -17 4 -30 -43z m-151 -558 c-11 -39 -28 -79
-31 -75 -5 5 26 97 33 97 2 0 1 -10 -2 -22z"/>
<path d="M4330 2428 c-12 -24 -46 -78 -76 -120 -30 -43 -79 -115 -111 -160
-63 -94 -78 -108 -108 -108 -15 0 -37 -19 -66 -56 -24 -30 -43 -59 -42 -64 2
-5 -6 -12 -17 -15 -35 -11 -210 -331 -195 -355 4 -6 2 -10 -3 -10 -5 0 -12 -8
-15 -17 -3 -10 -24 -69 -46 -131 -46 -126 -48 -157 -25 -318 14 -102 27 -148
59 -216 16 -32 42 -55 50 -46 2 2 6 64 9 138 4 74 9 149 11 165 3 17 7 53 10
80 16 139 68 266 160 392 35 47 62 90 59 95 -3 5 0 7 7 6 6 -2 43 42 81 97 38
55 73 102 79 103 5 2 9 12 9 23 0 10 4 19 10 19 10 0 126 166 137 198 4 9 20
40 36 67 30 50 68 145 81 198 6 26 5 28 -20 25 -24 -3 -29 -10 -46 -73 -21
-80 -38 -113 -120 -237 -32 -48 -58 -93 -58 -98 0 -6 -4 -9 -9 -5 -5 3 -20 -9
-32 -27 -13 -18 -30 -38 -39 -45 -8 -6 -51 -54 -95 -107 -44 -52 -86 -97 -93
-100 -7 -3 21 34 63 82 l75 87 -27 6 -28 7 28 1 c28 1 64 25 49 34 -4 2 -2 3
4 1 7 -1 22 8 35 22 l22 24 -34 1 -34 2 40 6 c36 5 45 13 86 74 64 93 111 186
148 291 35 98 29 137 -9 64z m-440 -733 c-7 -8 -17 -15 -23 -15 -6 0 -2 7 9
15 25 19 30 19 14 0z m-21 -52 c0 -16 -3 -22 -6 -15 -5 14 -11 6 -48 -65 -10
-18 -19 -33 -21 -33 -4 0 2 42 7 48 1 1 2 5 3 10 0 4 13 21 29 37 15 16 27 33
27 37 0 5 2 8 5 8 3 0 5 -12 4 -27z m-12 -65 c-3 -8 -6 -5 -6 6 -1 11 2 17 5
13 3 -3 4 -12 1 -19z m-104 -178 c-3 -12 -8 -19 -11 -16 -5 6 5 36 12 36 2 0
2 -9 -1 -20z m-23 -92 c0 -17 -3 -19 -9 -9 -6 9 -11 10 -15 2 -4 -6 -12 -11
-18 -11 -8 0 30 38 40 40 1 0 2 -10 2 -22z"/>
<path d="M1061 2401 c5 -24 8 -50 5 -58 -3 -7 15 -47 40 -88 40 -67 49 -75 77
-76 30 -2 30 -2 5 -6 -18 -3 -25 -9 -22 -18 3 -8 12 -11 19 -9 7 3 16 1 20 -5
4 -7 0 -8 -11 -4 -13 5 -16 3 -11 -10 11 -28 71 -119 121 -182 26 -33 33 -44
14 -24 -69 74 -108 122 -113 140 -4 10 -21 40 -38 66 -18 27 -41 65 -51 86
-11 20 -23 37 -27 37 -4 0 -10 14 -14 30 -8 34 -47 65 -70 56 -9 -3 -14 -2
-12 2 3 4 -11 17 -29 29 -42 27 -42 20 -5 -39 16 -25 32 -55 36 -67 3 -11 11
-21 16 -21 5 0 9 -5 9 -11 0 -20 120 -185 227 -310 60 -70 149 -183 198 -252
49 -69 94 -123 99 -120 4 3 6 29 2 57 -20 172 -222 546 -392 726 -23 25 -56
61 -73 80 l-30 35 10 -44z m314 -541 c10 -11 16 -20 13 -20 -3 0 -13 9 -23 20
-10 11 -16 20 -13 20 3 0 13 -9 23 -20z"/>
<path d="M272 2390 c1 -25 -2 -71 -6 -103 -7 -55 -6 -61 35 -140 61 -120 100
-177 171 -254 36 -37 89 -99 120 -138 30 -38 70 -86 87 -105 57 -63 152 -209
192 -294 80 -172 89 -266 48 -506 -16 -91 -29 -166 -29 -167 0 -2 4 -3 10 -3
26 0 109 178 135 290 56 248 -24 448 -366 905 -209 278 -299 427 -299 491 0
10 -6 13 -19 9 -26 -8 -50 4 -66 34 -14 26 -14 25 -13 -19z"/>
<path d="M3734 2393 c-15 -20 -43 -52 -61 -71 -97 -100 -193 -243 -278 -417
-71 -146 -104 -235 -112 -307 -7 -57 6 -62 40 -15 97 132 233 310 267 347 23
25 60 70 83 100 23 30 44 57 48 60 3 3 23 32 44 65 21 33 46 72 56 87 10 14
20 32 21 40 2 7 5 15 9 18 11 10 50 80 45 80 -13 0 -65 -37 -60 -43 3 -3 -2
-4 -13 -1 -10 2 -26 -2 -35 -10 -22 -16 -50 -81 -40 -91 4 -3 0 -5 -8 -3 -9 2
-24 -16 -40 -47 -14 -27 -28 -52 -33 -53 -13 -6 -47 -80 -47 -104 0 -15 -3
-19 -8 -11 -6 9 -19 -2 -45 -35 -20 -26 -57 -69 -83 -97 -41 -45 -39 -42 12
24 91 118 156 215 144 219 -5 2 -10 8 -10 13 0 6 4 8 9 5 5 -3 14 1 21 8 9 12
5 15 -22 19 l-33 4 36 1 c32 2 41 8 67 50 17 26 36 61 42 77 11 28 23 125 16
125 -2 0 -16 -16 -32 -37z m-294 -567 c0 -2 -8 -10 -17 -17 -16 -13 -17 -12
-4 4 13 16 21 21 21 13z"/>
<path d="M4527 2388 c-13 -14 -26 -18 -43 -14 -17 5 -24 2 -24 -8 0 -64 -102
-232 -304 -499 -345 -460 -419 -653 -352 -919 30 -120 112 -286 131 -267 1 2
-8 67 -21 144 -30 172 -35 268 -18 350 14 68 59 188 94 251 47 85 218 303 359
458 71 79 129 164 186 273 34 68 36 77 29 125 -5 29 -8 70 -8 91 -1 42 -4 43
-29 15z"/>
<path d="M800 2123 c0 -18 23 -53 35 -53 6 0 -7 33 -22 55 -13 19 -13 19 -13
-2z"/>
<path d="M4005 2101 c-8 -17 -12 -31 -7 -31 12 0 37 48 29 56 -3 3 -13 -8 -22
-25z"/>
<path d="M490 1826 c0 -2 16 -48 36 -102 70 -193 99 -415 74 -555 -5 -24 -6
-47 -3 -52 7 -11 68 69 97 128 32 66 39 156 20 260 -20 108 -27 124 -84 180
l-50 49 26 -95 c49 -181 54 -203 53 -224 -1 -20 -10 8 -28 85 -33 139 -73 255
-102 291 -28 36 -39 45 -39 35z"/>
<path d="M4296 1788 c-35 -48 -115 -326 -99 -351 3 -6 1 -7 -5 -3 -8 5 -12 -2
-13 -21 -1 -17 -3 -21 -6 -10 -5 19 14 106 51 235 13 45 20 82 16 82 -5 0 -28
-22 -53 -50 -38 -42 -48 -62 -63 -127 -21 -91 -23 -201 -4 -258 16 -50 102
-177 111 -164 3 6 2 29 -2 52 -4 23 -6 98 -5 167 4 134 25 236 85 399 31 86
28 102 -13 49z"/>
<path d="M745 1505 c3 -22 7 -103 9 -180 8 -284 -31 -482 -120 -602 -30 -39
-30 -43 -2 -43 36 0 134 112 178 205 58 122 101 235 104 275 5 63 -87 281
-149 355 l-26 30 6 -40z"/>
<path d="M4068 1523 c-55 -62 -149 -284 -149 -352 -1 -90 115 -340 198 -428
54 -58 64 -63 101 -54 2 1 -8 16 -21 34 -84 111 -119 262 -122 524 -1 101 2
206 6 235 5 29 7 53 5 55 -1 2 -10 -5 -18 -14z"/>
</g>
</svg>
