<svg id="f72de264-a2d7-49f8-8e83-0627e1e5813d" data-name="Layer 1" xmlns="http://www.w3.org/2000/svg" viewBox="0 0 92 33.8"><defs><style>.baf2180b-ff26-47fe-8557-082bc328d8e8{fill:#7f440e;stroke:#7f440e;stroke-miterlimit:10;stroke-width:0.54px;}</style></defs><path class="baf2180b-ff26-47fe-8557-082bc328d8e8" d="M54.7,38.2a19.3,19.3,0,0,1,2.4-2.5l2.2-1.8,2.1-1.2c1.5-.8,2.6-1,3.1-.7s.2.1.3.3-.2,1.1-.9,2.3l-2.3,2.9c2.9-2.1,5-3,6.2-3.2s1.1.1,1.3.5a3.4,3.4,0,0,1-.9,2.4,40.2,40.2,0,0,1-3.1,4c-1.3,1.3-2.4,2.5-3.5,3.5a12.1,12.1,0,0,1-2.3,1.6l-1-1.5c-.8-1.2-1.5-2.2-2-3.1s-.9-1.8-1.4-2.8l-.3.3c-.1.1-.2,0-.3-.1S54.3,38.6,54.7,38.2Zm3.6-2.3-.4.4a7.1,7.1,0,0,0-1.6,1.6l1.3,2.8c1-1,2.1-2.3,3.5-3.9A13.6,13.6,0,0,0,63,34.2a1.2,1.2,0,0,0,.2-.7.5.5,0,0,0-.5-.3l-.8.3-1,.5-1.1.7Zm2.1,8.5,4.2-4.2,2.3-2.7c.4-.7.6-1.2.4-1.5s-.6-.5-1.4-.2a10.5,10.5,0,0,0-3.3,1.9,30.3,30.3,0,0,0-4.2,4Z" transform="translate(-54 -23)"/><path class="baf2180b-ff26-47fe-8557-082bc328d8e8" d="M79.4,27.9a5.1,5.1,0,0,0-2.3.4,8.8,8.8,0,0,0-2.3,1.4,5.8,5.8,0,0,0-2.2,2.8,2,2,0,0,0,0,1.1,1.8,1.8,0,0,0,.1.5l.5.9a5.4,5.4,0,0,1,.7,1.3,1.5,1.5,0,0,0-.6.4l-.4.2h-.4l-.4-.3c0-.1-.1-.2-.2-.4a4.1,4.1,0,0,0-.5-.9l-.6-1.2a7.5,7.5,0,0,0-.7-1.2l-1-1.9c-.1-.2.1-.4.6-.7a.9.9,0,0,1,.7-.1l.6.4.4.5c.1.2.1.3.2.4a12.3,12.3,0,0,1,6.1-4.7l1-.4h.7c.2,0,.3.2.4.4S79.8,27.7,79.4,27.9Z" transform="translate(-54 -23)"/><path class="baf2180b-ff26-47fe-8557-082bc328d8e8" d="M86.1,30.5a30.9,30.9,0,0,0,5.3-2.3h.4c.1,0,.1.1.2.2a6.8,6.8,0,0,1-3,2.2,11.7,11.7,0,0,1-4.2,1.2c-1.5.1-2.5-.2-3-1.1a1.2,1.2,0,0,1-.2-.7,3.2,3.2,0,0,1,0-1.4,5.1,5.1,0,0,1,.9-1.8,7.3,7.3,0,0,1,1.8-1.7,6.4,6.4,0,0,1,2.4-1,7,7,0,0,1,2.9,0,3.3,3.3,0,0,1,1.2.5c.3.2.5.4.5.7v.2c.1.6-.3,1.1-1.1,1.4l-1.2.3-3,.6a5,5,0,0,0-2.2,1,1.9,1.9,0,0,0-.5,1C83.8,30.7,84.8,30.9,86.1,30.5ZM89.2,25H87.3a2.1,2.1,0,0,0-1.1.4,4,4,0,0,0-1.3.7c-.9.5-1.4,1-1.3,1.4l2.5-.6a17.6,17.6,0,0,0,3.2-1c.3-.1.4-.3.4-.4S89.5,25.1,89.2,25Z" transform="translate(-54 -23)"/><path class="baf2180b-ff26-47fe-8557-082bc328d8e8" d="M101.3,25.5l-.8,2.1a15.6,15.6,0,0,1-.5,1.6c-.3.6-.7.9-1,.9h-.7a20.3,20.3,0,0,1-2.9-3.2c-1.2-1.6-1.9-2.5-1.9-3s0-.3.2-.3h.5a1.6,1.6,0,0,1,1.1.4l.4.5.6.9c.6,1,1.2,2,1.8,2.8a5.6,5.6,0,0,0,.9-1.4l.6-1.3c.6-1.2,1.1-1.8,1.6-1.8s1.4.8,3.1,2.8l1.4,1.6c.1,0,.3-.3.5-.9l.5-1.5.6-1.1c.5-.8,1.1-1.2,1.7-1.1l.5.2a.3.3,0,0,0,.1.2v.2l-.6,1.1c-.2.4-.5.8-.7,1.3l-.7,1.3-.7,1.2a3.2,3.2,0,0,1-1.2,1.2,2,2,0,0,1-1.1-.7l-.7-.9-.8-.9Z" transform="translate(-54 -23)"/><path class="baf2180b-ff26-47fe-8557-082bc328d8e8" d="M114.9,30.3a26.5,26.5,0,0,0,5.5.3l.4.2a.4.4,0,0,1,.1.3,5.9,5.9,0,0,1-3.4.7,10.8,10.8,0,0,1-4.2-.9c-1.5-.6-2.3-1.3-2.6-2.4a2.8,2.8,0,0,1,.1-.8,2.8,2.8,0,0,1,.5-1.2,3.2,3.2,0,0,1,1.3-1.3,5.7,5.7,0,0,1,2.2-.7,5.3,5.3,0,0,1,2.5.2,6.4,6.4,0,0,1,2.7,1.4,3.2,3.2,0,0,1,1,1,.9.9,0,0,1,.2.8v.2a1.2,1.2,0,0,1-1.5.8l-1.2-.3-2.9-.9a4.8,4.8,0,0,0-2.4,0,1,1,0,0,0-.7.7C112.7,29.4,113.5,30,114.9,30.3Zm4.5-3.7-.9-.6-.9-.3-1.1-.2h-1.4c-1.1.1-1.6.3-1.6.7l2.5.6a14.8,14.8,0,0,0,3.2.6c.3,0,.5-.1.5-.2S119.6,26.9,119.4,26.6Z" transform="translate(-54 -23)"/><path class="baf2180b-ff26-47fe-8557-082bc328d8e8" d="M132.9,32.7a6.2,6.2,0,0,0-1.9-1.6,9.6,9.6,0,0,0-2.4-.8,5,5,0,0,0-3.2.3,1.6,1.6,0,0,0-.6.8,1.1,1.1,0,0,1-.1.5,4.1,4.1,0,0,0-.1,1.2,5.9,5.9,0,0,1-.2,1.4l-.7-.2h-.4L123,34a3.5,3.5,0,0,1-.1-.6v-.5c0-.3.1-.6.1-1.1a5.3,5.3,0,0,0,.1-1.3c.1-.5.1-1,.2-1.5s.1-1.8.1-2.3.4-.2.8-.1a2,2,0,0,1,.7.6,1.9,1.9,0,0,1,.2.7c0,.3.1.5,0,.7v.5a10.8,10.8,0,0,1,7.1,1.5l.9.5.3.2c.1,0,.2.2.3.3a.6.6,0,0,1,0,.6C133.6,32.7,133.3,32.9,132.9,32.7Z" transform="translate(-54 -23)"/><path class="baf2180b-ff26-47fe-8557-082bc328d8e8" d="M137.4,31.1a.7.7,0,0,1,.3.8,2.4,2.4,0,0,1-1.3,1l-.5.3-1-.5,2.1-1.8Z" transform="translate(-54 -23)"/><path class="baf2180b-ff26-47fe-8557-082bc328d8e8" d="M143.2,42.1c1.2,1.2,1.7,2,1.4,2.5s-.7.4-1.7.2a20.5,20.5,0,0,1-4.9-1.7l-.2-.4v-.5a.3.3,0,0,1-.1-.2,16.4,16.4,0,0,0,3.8,1.4q1,.3,1.2,0c.1-.2-.2-.6-.8-1.2a18.3,18.3,0,0,0-3.2-2,5.2,5.2,0,0,1-1.3-1.7,1.8,1.8,0,0,1-.3-1.3,1.3,1.3,0,0,1,.7-.6H139l1.5.4a10.4,10.4,0,0,1,3.9,2.5,4.7,4.7,0,0,1,1,1,.6.6,0,0,1,.3.7,3.1,3.1,0,0,1-.4.9,11.3,11.3,0,0,0-2.1-2.4,6.8,6.8,0,0,0-2.9-1.7c-.9-.3-1.4-.2-1.7.3s.1.6.6,1l1.3.9A13.6,13.6,0,0,1,143.2,42.1Z" transform="translate(-54 -23)"/><path class="baf2180b-ff26-47fe-8557-082bc328d8e8" d="M73.5,46.6c.1.4.2.8.4,1.4A21.9,21.9,0,0,0,75,50a14.7,14.7,0,0,0-1,1.3l-2-3.5c-.4.2-.6.3-.7.1s0-.4.1-.7a2.1,2.1,0,0,0,.2-.6v-.5a3.1,3.1,0,0,0-.2-.8c-.1-.4-.3-.8-.4-1.3s-.3-.8-.4-1.2-.2-.7-.2-.8l.4-.7c.2-.3.4-.4.6-.2s1,2.9,1.6,4.4c2.7-1.6,4.3-2.5,4.8-3.1s-.9-3-1.3-4.6.3-.4,1-.7h.3a3.1,3.1,0,0,0,.2.8c.2.4.3.8.5,1.3a15.5,15.5,0,0,1,.4,1.5,12.1,12.1,0,0,1,.5,1.4c.3,1,.5,1.7.7,2.2a5.7,5.7,0,0,0,1.6,2.5,5.1,5.1,0,0,1-1.6.9,9.5,9.5,0,0,1-2-3.9l-1.6.7-.9.5A10.5,10.5,0,0,0,73.5,46.6Z" transform="translate(-54 -23)"/><path class="baf2180b-ff26-47fe-8557-082bc328d8e8" d="M87.9,44a20,20,0,0,0,4.4-2.1c.2-.1.3,0,.4,0a.4.4,0,0,1,.1.3,6.4,6.4,0,0,1-2.4,2.1,10.6,10.6,0,0,1-3.6,1.1c-1.3,0-2.2-.3-2.7-1.2a2.5,2.5,0,0,0-.2-.7,7.6,7.6,0,0,1,.1-1.4,3.4,3.4,0,0,1,.7-1.8,4.3,4.3,0,0,1,1.4-1.6,5.8,5.8,0,0,1,2.1-1,7.2,7.2,0,0,1,2.5.1l1.1.5a1,1,0,0,1,.4.7v.2a1.3,1.3,0,0,1-.9,1.4l-1,.3-2.6.5a3.1,3.1,0,0,0-1.9,1,1.9,1.9,0,0,0-.4.9A1.9,1.9,0,0,0,87.9,44Zm2.5-5.4H88.7l-.9.4a4.1,4.1,0,0,0-1.1.7c-.8.5-1.1,1-1.1,1.3l2.2-.5a10.3,10.3,0,0,0,2.7-.9c.2-.1.4-.3.3-.4S90.7,38.8,90.4,38.6Z" transform="translate(-54 -23)"/><path class="baf2180b-ff26-47fe-8557-082bc328d8e8" d="M102.9,40.9a6.3,6.3,0,0,1-3.6,2.3H97.1l-.6-.2a.8.8,0,0,1-.7-.8c0-.2-.1-.4-.1-.6a3.1,3.1,0,0,1,.1-.9,3.8,3.8,0,0,1,.6-1.3,6.9,6.9,0,0,1,1.1-1.3,7.7,7.7,0,0,1,3.2-1.7h1.7a1.5,1.5,0,0,1,1.4,1.3,6.1,6.1,0,0,1,.3,2.2,14.4,14.4,0,0,0,0,2.1,6.6,6.6,0,0,0,.1,1.4h-1c0-.3-.1-.5-.1-.7v-.6C103,41.6,103,41.2,102.9,40.9Zm0-2.4c0-.6-.4-.9-1.1-.9h-.2a5,5,0,0,0-2.9,1.1l-1.1,1.2a2.7,2.7,0,0,0-.7,1.6c0,.6.5.9,1.3,1a5.6,5.6,0,0,0,3-1.3,5.3,5.3,0,0,0,1-1.2A3.4,3.4,0,0,0,102.9,38.5Z" transform="translate(-54 -23)"/><path class="baf2180b-ff26-47fe-8557-082bc328d8e8" d="M107.6,37.9v-.2c0-.1,0-.1.1-.3l.3-.2h.4a.3.3,0,0,1,.3.3,51.2,51.2,0,0,1,2.5,5.3l.6-.6.8-1a11.4,11.4,0,0,0,1.1-1.1,9.4,9.4,0,0,1,1-1,4,4,0,0,1,1.3-1,1,1,0,0,1,.5.4.8.8,0,0,1,.1.4h0l-2.5,2.9-1.4,1.8c-.2.2-.4.5-.6.6s-.5.4-.8.3-.4-.2-.7-.6l-.9-1.5Z" transform="translate(-54 -23)"/><path class="baf2180b-ff26-47fe-8557-082bc328d8e8" d="M121.5,46.6a21.5,21.5,0,0,0,4.7,1l.3.2v.3a4.6,4.6,0,0,1-3,.3,9.4,9.4,0,0,1-3.4-1.4,3.1,3.1,0,0,1-1.8-2.7,2,2,0,0,1,.1-.7,6.6,6.6,0,0,1,.6-1.2,3.6,3.6,0,0,1,1.3-1.1,4.1,4.1,0,0,1,1.9-.4,4.4,4.4,0,0,1,2.2.5,5.9,5.9,0,0,1,2.1,1.6l.7,1.1c.1.4.2.7.1.9a.3.3,0,0,0-.1.2c-.2.6-.7.8-1.4.6l-1-.4-2.3-1.2a3.3,3.3,0,0,0-2-.4,1.6,1.6,0,0,0-.8.6A2.7,2.7,0,0,0,121.5,46.6Zm4.4-3.1a4.6,4.6,0,0,1-.7-.7l-.7-.4-.9-.3h-1.3c-.8-.1-1.3.1-1.4.5l2,.9a13.7,13.7,0,0,0,2.7,1c.3,0,.4,0,.5-.2A1.1,1.1,0,0,0,125.9,43.5Z" transform="translate(-54 -23)"/><path class="baf2180b-ff26-47fe-8557-082bc328d8e8" d="M135.7,52.9a11.1,11.1,0,0,0,.9-2.5c.2,0,.1-.2-.3-.5a3.7,3.7,0,0,0-1.4-.8l-1.6-.6c-1-.3-1.6-.3-1.9,0l-1.5,3.7-1-.7a12.4,12.4,0,0,1,.8-2.7c.5-1.3.9-2.2,1.2-2.8a4.7,4.7,0,0,1,.6-1l.8.3c.3.2.3.5.1,1.1l-.3.5-.2.4a7.6,7.6,0,0,1,4.6,1.4,2.8,2.8,0,0,1,.7,3.6,17.8,17.8,0,0,1-1,2.1c-.2.3-.3.7-.5,1l-.6,1.1h-.2l-.2-.2-.3-.4a3.6,3.6,0,0,1,.4-1.1c.1-.4.3-.7.4-1.1Z" transform="translate(-54 -23)"/></svg>