<svg id="e1fe89f4-a20a-4a62-bb13-ecffac375b1f" data-name="Layer 1" xmlns="http://www.w3.org/2000/svg" viewBox="0 0 65.3 28.4"><defs><style>.b9c3c09d-80e5-4b68-a689-980cfb7f8318{fill:#7f440e;stroke:#7f440e;stroke-miterlimit:10;stroke-width:0.54px;}</style></defs><path class="b9c3c09d-80e5-4b68-a689-980cfb7f8318" d="M69.2,31a6.9,6.9,0,0,1,2-.3h1.7a4,4,0,0,1,1.5.3,3,3,0,0,1,1.9,1.5.6.6,0,0,1,.1.4,2.3,2.3,0,0,1-1.1,1.7,9.7,9.7,0,0,1-2.1,1.2c2.3.2,3.8.6,4.6,1.2a1.7,1.7,0,0,1,.6,1.2,2.7,2.7,0,0,1-1.1,2,10.9,10.9,0,0,1-3,1.8,10.3,10.3,0,0,1-3.2.7,4.9,4.9,0,0,1-1.9-.4,19.3,19.3,0,0,1-.1-2.4c-.1-1.7-.1-3.2-.1-4.4s0-2.5.1-3.8h-.3c-.1,0-.2-.1-.2-.3S68.8,31,69.2,31Zm2.6.8h-.4c-.8,0-1.2.1-1.3.3v3.6a8.8,8.8,0,0,0,3.1-.8,5,5,0,0,0,1.8-1.1,1.1,1.1,0,0,0,.3-.7.8.8,0,0,0-.2-.5,1.3,1.3,0,0,0-.6-.4l-.7-.2H71.8Zm-1.3,9.7a17.2,17.2,0,0,0,3.8-.7,5.1,5.1,0,0,0,2.1-1.1,1.5,1.5,0,0,0,.7-1.2,1.4,1.4,0,0,0-.9-1.2,6,6,0,0,0-2.5-.4,12.9,12.9,0,0,0-3.6.5Z" transform="translate(-68.4 -30.4)"/><path class="b9c3c09d-80e5-4b68-a689-980cfb7f8318" d="M86.4,36.2a2.8,2.8,0,0,0-1.6-.5,3.3,3.3,0,0,0-1.7.4A3.9,3.9,0,0,0,81.2,38a2,2,0,0,0-.3,1.1v.6a8.3,8.3,0,0,0,.2,1.3,9.7,9.7,0,0,1,.1,1.7h-1c-.1-.1-.1-.3-.2-.6a1.5,1.5,0,0,1-.1-.6,5.7,5.7,0,0,0-.1-1.2c0-.4-.1-.9-.1-1.5s-.1-1.1-.2-1.6-.2-2.1-.2-2.6.1-.4.5-.4.3.1.5.3a1.4,1.4,0,0,1,.2.7c.1.2.1.5.2.8v.5a6.3,6.3,0,0,1,4.8-2.1h.8l.3.2a1.4,1.4,0,0,1,.2.6C86.8,35.8,86.6,36.1,86.4,36.2Z" transform="translate(-68.4 -30.4)"/><path class="b9c3c09d-80e5-4b68-a689-980cfb7f8318" d="M90.5,41.4A10.2,10.2,0,0,0,94.4,40h.2a.4.4,0,0,1,.1.3,3.8,3.8,0,0,1-2.2,1.9,4.5,4.5,0,0,1-3,.2,2.6,2.6,0,0,1-2-2.2v-.9c0-.3.1-.8.2-1.5a6.5,6.5,0,0,1,.8-1.7,4.3,4.3,0,0,1,1.4-1.3,3.3,3.3,0,0,1,1.6-.5,4,4,0,0,1,1.9.7,2,2,0,0,1,.8.8,1.6,1.6,0,0,1,.3.8V37c0,.7-.3,1.2-.9,1.3l-.8.2H90.7a2.1,2.1,0,0,0-1.6.5,1.9,1.9,0,0,0-.4.9A1.7,1.7,0,0,0,90.5,41.4ZM93.1,36a1,1,0,0,0-.7-.4l-.5-.2-.8.2-.9.4c-.7.4-1,.8-1,1.2h1.7a5.4,5.4,0,0,0,2.2-.3.5.5,0,0,0,.3-.4A.9.9,0,0,0,93.1,36Z" transform="translate(-68.4 -30.4)"/><path class="b9c3c09d-80e5-4b68-a689-980cfb7f8318" d="M101.2,37.8a20.5,20.5,0,0,0-.5,2.4c-.2.7-.3,1.3-.4,1.8s-.5,1-.7,1l-.5-.2a17.3,17.3,0,0,1-1.9-3.9A13.8,13.8,0,0,1,96,35.3a.5.5,0,0,1,.2-.4h.3a1.1,1.1,0,0,1,.7.6,1.6,1.6,0,0,1,.3.6l.3,1.1L99,40.6a13.8,13.8,0,0,0,.6-1.6l.5-1.5c.4-1.3.7-2,1-2s1,.8,2.2,3.1l.9,1.7c.1,0,.2-.3.3-1s.3-1.3.4-1.8l.3-1.4c.3-1,.7-1.5,1.1-1.5l.3.2c0,.1.1.2.1.3h0a5.7,5.7,0,0,0-.4,1.4c-.1.5-.3,1-.4,1.6s-.3,1-.4,1.5a11.3,11.3,0,0,0-.4,1.5c-.3.9-.6,1.4-.8,1.4s-.5-.1-.8-.7a1.9,1.9,0,0,1-.5-.9l-.6-1.1Z" transform="translate(-68.4 -30.4)"/><path class="b9c3c09d-80e5-4b68-a689-980cfb7f8318" d="M110.8,41.4a9.9,9.9,0,0,0,3.8-1.4h.3c0,.1.1.2.1.3a4.2,4.2,0,0,1-2.2,1.9,4.8,4.8,0,0,1-3.1.2,2.5,2.5,0,0,1-1.9-2.2,2.2,2.2,0,0,1-.1-.9,6.4,6.4,0,0,1,.3-1.5,4.4,4.4,0,0,1,.8-1.7,4,4,0,0,1,1.3-1.3,3.7,3.7,0,0,1,1.7-.5,4,4,0,0,1,1.9.7,3,3,0,0,1,.8.8,1.6,1.6,0,0,1,.3.8c0,.1-.1.2-.1.3s-.3,1.2-.8,1.3l-.9.2h-2a1.8,1.8,0,0,0-2.1,1.4A1.8,1.8,0,0,0,110.8,41.4Zm2.6-5.4c-.3-.2-.5-.4-.7-.4l-.6-.2-.7.2-1,.4c-.6.4-1,.8-1,1.2h1.8a4.8,4.8,0,0,0,2.1-.3c.3-.1.4-.3.4-.4A.9.9,0,0,0,113.4,36Z" transform="translate(-68.4 -30.4)"/><path class="b9c3c09d-80e5-4b68-a689-980cfb7f8318" d="M123.1,36.2a2.5,2.5,0,0,0-1.6-.5,2.9,2.9,0,0,0-1.6.4,3.7,3.7,0,0,0-2,1.9,2,2,0,0,0-.3,1.1v.6a8.3,8.3,0,0,0,.2,1.3,9.7,9.7,0,0,1,.1,1.7h-1c-.1-.1-.1-.3-.2-.6a2.8,2.8,0,0,0-.1-.6,5.7,5.7,0,0,0-.1-1.2c0-.4-.1-.9-.1-1.5s-.1-1.1-.2-1.6-.2-2.1-.2-2.6.2-.4.5-.4.3.1.5.3a1.4,1.4,0,0,1,.2.7,1.9,1.9,0,0,1,.2.8v.5a6.3,6.3,0,0,1,4.8-2.1h.9l.2.2a1.4,1.4,0,0,1,.2.6C123.5,35.8,123.3,36.1,123.1,36.2Z" transform="translate(-68.4 -30.4)"/><path class="b9c3c09d-80e5-4b68-a689-980cfb7f8318" d="M125.4,31.7c.2,0,.4.3.4.7a6.7,6.7,0,0,1-.5,1.9l-.3.6h-.7l.8-3.1Z" transform="translate(-68.4 -30.4)"/><path class="b9c3c09d-80e5-4b68-a689-980cfb7f8318" d="M131.8,38.1c1,0,1.6.3,1.6,1a2.6,2.6,0,0,1-.9,1.7,8.3,8.3,0,0,1-3.6,2.3l-.2-.2c-.1-.2-.1-.3-.2-.4s0-.1-.1-.1a9.5,9.5,0,0,0,2.8-1.7c.5-.4.7-.7.7-1s-.3-.4-.9-.4a11.9,11.9,0,0,0-2.5.5,1.9,1.9,0,0,1-1.3-.7,1.5,1.5,0,0,1-.4-1.1,3.6,3.6,0,0,1,.2-1l.7-.9,1-.7a6.4,6.4,0,0,1,3-.8h.8c.3,0,.4.1.4.4a3.5,3.5,0,0,1,.1,1.2,4.1,4.1,0,0,0-1.9-.5,3.8,3.8,0,0,0-2.2.6,2.5,2.5,0,0,0-1,1.7c0,.3.2.5.6.5h1.1A6.9,6.9,0,0,1,131.8,38.1Z" transform="translate(-68.4 -30.4)"/><path class="b9c3c09d-80e5-4b68-a689-980cfb7f8318" d="M78.5,53.3a7.6,7.6,0,0,0-.1,1.7,13.8,13.8,0,0,0,.3,2.6l-1.1.7L77,53.6c-.3-.1-.5-.2-.5-.5a.9.9,0,0,1,.3-.5c.1-.3.3-.4.3-.6a.8.8,0,0,0,.2-.5v-1a6.6,6.6,0,0,0,.1-1.5c0-.5.1-1,.1-1.4v-1c.2-.3.4-.5.5-.5s.4-.1.5.2v5.5c2.4,0,3.8-.2,4.3-.6V45.7c0-.2.3-.3.8-.3h.2c0,.2.1.6.1,1V48a12.1,12.1,0,0,0,.1,1.8v1.8c.1,1.2.1,2.1.1,2.6a9.6,9.6,0,0,0,.7,3.4,2.3,2.3,0,0,1-1.4.4,15.8,15.8,0,0,1-.7-5.3H80.5Z" transform="translate(-68.4 -30.4)"/><path class="b9c3c09d-80e5-4b68-a689-980cfb7f8318" d="M90.2,57A9.9,9.9,0,0,0,94,55.6c.1,0,.2,0,.2.1a.4.4,0,0,1,.1.3,3.5,3.5,0,0,1-2.2,1.9,4,4,0,0,1-3,.2,2.7,2.7,0,0,1-2-2.2V55a11.5,11.5,0,0,1,.2-1.4,6.1,6.1,0,0,1,.9-1.8,4,4,0,0,1,1.3-1.3,3.4,3.4,0,0,1,1.7-.5,4.5,4.5,0,0,1,1.9.7l.7.8a1.6,1.6,0,0,1,.3.9v.2a1.4,1.4,0,0,1-.8,1.4h-3a2.3,2.3,0,0,0-1.5.5,1.3,1.3,0,0,0-.5.9A1.8,1.8,0,0,0,90.2,57Zm2.5-5.4-.6-.4H90.7l-.9.4c-.7.4-1,.8-1,1.2l1.7.2a5,5,0,0,0,2.2-.4c.2-.1.4-.2.4-.4A.7.7,0,0,0,92.7,51.6Z" transform="translate(-68.4 -30.4)"/><path class="b9c3c09d-80e5-4b68-a689-980cfb7f8318" d="M102.5,55.3a4.6,4.6,0,0,1-2.9,2.6H97.8l-.5-.2a1.2,1.2,0,0,1-.5-1.1,1.5,1.5,0,0,1-.1-.7,5.8,5.8,0,0,1,.2-1,3,3,0,0,1,.5-1.4,4.2,4.2,0,0,1,.9-1.4,4.9,4.9,0,0,1,2.5-1.7h1.3c.5,0,.9.5,1.1,1.4a14.7,14.7,0,0,1,.2,2.5,22.7,22.7,0,0,1,.1,2.4,6.1,6.1,0,0,0,.2,1.5h-.9a1.9,1.9,0,0,0-.1-.8v-.7C102.6,56.1,102.6,55.7,102.5,55.3Zm0-2.7c0-.7-.3-1-.9-1h-.2a3.3,3.3,0,0,0-2.2,1.2,3.8,3.8,0,0,0-.9,1.3,3.2,3.2,0,0,0-.6,1.8,1.1,1.1,0,0,0,1,1.2,3.4,3.4,0,0,0,2.5-1.5,5.7,5.7,0,0,0,.8-1.3A4.1,4.1,0,0,0,102.5,52.6Z" transform="translate(-68.4 -30.4)"/><path class="b9c3c09d-80e5-4b68-a689-980cfb7f8318" d="M106.1,51.4v-.2a.8.8,0,0,1,.1-.3c0-.1.1-.2.2-.3h.3a.2.2,0,0,1,.2.2l2.5,5.5c0-.1.2-.4.3-.8l.6-1.3.7-1.5a6.1,6.1,0,0,1,.7-1.4c.4-1,.7-1.5.8-1.5s.3.1.4.3.2.3.2.4v.2q-.9,2.1-1.5,3.9l-1,2.4a2,2,0,0,1-.4.8c-.2.4-.3.6-.5.6a1,1,0,0,1-.7-.6,8.3,8.3,0,0,1-.9-1.5C107.6,55.1,106.9,53.5,106.1,51.4Z" transform="translate(-68.4 -30.4)"/><path class="b9c3c09d-80e5-4b68-a689-980cfb7f8318" d="M118.2,57a9.7,9.7,0,0,0,3.9-1.4c.1,0,.2,0,.2.1a.4.4,0,0,1,.1.3,3.8,3.8,0,0,1-2.2,1.9,4,4,0,0,1-3,.2,2.6,2.6,0,0,1-2-2.2V55a11.5,11.5,0,0,1,.2-1.4,9.8,9.8,0,0,1,.8-1.8,5.7,5.7,0,0,1,1.4-1.3,3.4,3.4,0,0,1,1.7-.5,4.1,4.1,0,0,1,1.8.7,3,3,0,0,1,.8.8,1.6,1.6,0,0,1,.3.9v.2a1.3,1.3,0,0,1-.9,1.4h-2.9a2.5,2.5,0,0,0-1.6.5,1.9,1.9,0,0,0-.4.9A1.7,1.7,0,0,0,118.2,57Zm2.6-5.4-.7-.4h-1.3l-.9.4c-.7.4-1,.8-1,1.2l1.7.2a5,5,0,0,0,2.2-.4c.2-.1.3-.2.3-.4A.9.9,0,0,0,120.8,51.6Z" transform="translate(-68.4 -30.4)"/><path class="b9c3c09d-80e5-4b68-a689-980cfb7f8318" d="M130.5,54.4a25.5,25.5,0,0,0-.1-3.1c0-.2-.1-.2-.4-.2l-1.3.3a3.3,3.3,0,0,0-1.2.5,2.7,2.7,0,0,0-1.3,1.4v4.8h-1a19.3,19.3,0,0,1-.2-3.4,34.4,34.4,0,0,1,.1-3.6,8.9,8.9,0,0,1,.1-1.3l.6-.3c.3,0,.4.3.4,1a2.2,2.2,0,0,1-.1.8v.5q2.4-2.1,3.6-2.1c1,0,1.6,1,1.7,2.9a21,21,0,0,1,.1,2.8v2.8h-.8c-.1-.4-.1-.9-.2-1.4V54.4Z" transform="translate(-68.4 -30.4)"/></svg>