<?xml version="1.0" encoding="utf-8"?>
<!-- Generator: Adobe Illustrator 25.0.0, SVG Export Plug-In . SVG Version: 6.00 Build 0)  -->
<svg version="1.1" id="Layer_1" xmlns="http://www.w3.org/2000/svg" xmlns:xlink="http://www.w3.org/1999/xlink" x="0px" y="0px"
	 viewBox="0 0 179.3 58.5" style="enable-background:new 0 0 179.3 58.5;" xml:space="preserve">
<style type="text/css">
	.st0{font-family:'Lato-Light';}
	.st1{font-size:39.79px;}
</style>
<g>
	<path d="M10.4,13.5c1.1-1.1,2-2.6,3.3-3.4c1.1-0.5,2.3-0.6,3.4-0.1c3.6,2.4,9.2,0.1,10-3.9c0.4-1.1,1.3-2,2.5-2.3
		c1.6,0.1,4.6,0.9,4.7,1.4c0.1,3.3,2.1,4.1,4.6,5.7s4.9-0.7,7.9-2c1,1.3,2.7,2.6,3.1,4.2s-1.1,2.9-1.7,4.4s2.6,7.8,4.6,8.2l2.4,0.5
		c1.1,6.9,0.9,7.2-4.6,7.6l-1.5,3.6c-3.7-1.6-4.6-4.4-4.1-7.9c0.9-6.8-5.5-15.3-15.1-15s-14.7,7.6-14.1,16.1
		c0.5,7.3,6.5,12.9,13.8,13c3.5,0,6.5,0.4,7.7,3c-1.4,2.6-2.1,5-3.6,6.5s-3.3,1.4-5,1.4c-1.1-0.4-2-1.3-2.4-2.4
		c-0.8-4-6.3-6.5-9.5-4.1s-3.6,0-5-1.3s-2.1-2.5-0.5-4.4s0.2-8.8-3.7-9.4c-1.5,0-2.8-1.2-2.8-2.8c0-0.3,0-0.6,0.1-0.8
		c0.2-1.5,0.9-3.7,2-4.2C12.8,22.8,14.1,19.1,10.4,13.5z"/>
	<path d="M20.9,27.4c3.4,1.2,5.3,6.8,9.7,2.6s-1.4-6.7-2.5-10c5.9-1.3,11.8,1.9,11.9,7.4s3.7,9.2,7.2,12.9c1.3,1.5,2.4,3.3,3.6,4.9
		l-1.3,1.1L37.9,35.9L36.7,37L47,48.5l-0.3,0.9c-0.9-0.2-2-0.1-2.7-0.6c-1.7-1.3-3.3-2.7-4.7-4.2c-3.1-3-6.1-5.5-10.9-5.7
		S20.5,33.5,20.9,27.4z"/>
	<path d="M78.2,27l9.4,0.4V32h-9.5v11.7h-5.9v-28h17.4v5.2H78.2V27z"/>
	<path d="M99.5,43.7H94v-28h5.5V43.7z"/>
	<path d="M152.5,15.7h14.1v0.7h-12.7v12.4l10,0.5V30h-10.1v12.6H167v0.9h-14.6L152.5,15.7z"/>
	<path d="M132.5,15.7h14.1v0.7h-12.7v12.4l10,0.5V30h-10.1v12.6H147v0.9h-14.6L132.5,15.7z"/>
	<text transform="matrix(0.98 0 0 1 104.5 44.1001)" class="st0 st1">X</text>
</g>
</svg>
