<svg id="Layer_1" data-name="Layer 1" xmlns="http://www.w3.org/2000/svg" viewBox="0 0 179.3 58.5">
  <defs>
    <style>
      .cls-1 {
        fill: #fff;
      }

      .cls-2 {
        font-size: 39.79px;
        font-family: Lato-Light, Lato;
        font-weight: 300;
      }
    </style>
  </defs>
  <g>
    <path class="cls-1" d="M870,989.5V931h179.2v58.5Zm10.4-45c3.7,5.6,2.4,9.3-3.5,11.6-1.1.5-1.8,2.7-2,4.2a2.8,2.8,0,0,0,2.7,3.6c3.9.6,6.3,6.5,3.7,9.4s-1,3,.5,4.4,2.5,3.1,5,1.3,8.7.1,9.5,4.1a4.1,4.1,0,0,0,2.4,2.4c1.7,0,3.9-.3,5-1.4s2.2-3.9,3.6-6.5c-1.2-2.6-4.2-3-7.7-3a14,14,0,0,1-13.8-13c-.6-8.5,5.7-15.9,14.1-16.1s16,8.2,15.1,15c-.5,3.5.4,6.3,4.1,7.9l1.5-3.6c5.5-.4,5.7-.7,4.6-7.6l-2.4-.5c-2-.4-5.4-6.3-4.6-8.2s2-3.1,1.7-4.4-2.1-2.9-3.1-4.2c-3,1.3-4.4,4.2-7.9,2s-4.5-2.4-4.6-5.7c-.1-.5-3.1-1.3-4.7-1.4a3.6,3.6,0,0,0-2.5,2.3c-.8,4-6.4,6.3-10,3.9a4.1,4.1,0,0,0-3.4.1C882.4,941.9,881.5,943.4,880.4,944.5Zm10.5,13.9c-.4,6.1,2.7,11.2,7.5,11.5s7.8,2.7,10.9,5.7a37.2,37.2,0,0,0,4.7,4.2c.7.5,1.8.4,2.7.6l.3-.9L906.7,968l1.2-1.1,11.6,10.4,1.3-1.1c-1.2-1.6-2.3-3.4-3.6-4.9-3.5-3.7-7.1-6.9-7.2-12.9s-6-8.7-11.9-7.4c1.1,3.3,7.3,5.3,2.5,10S894.3,959.6,890.9,958.4Zm57.3-.4v-6.1h11.4v-5.2H942.2v28h5.9V963h9.5v-4.6Zm21.3,16.7v-28H964v28Zm53-28v27.8h14.6v-.9h-13.2V961h10.1v-.7l-10-.5V947.4h12.7v-.7Zm-26.2,27.7.8-.6c-2.5-3.6-4.9-7.3-7.7-10.8s-1.5-3.8.1-5.8,4.4-6.1,6.6-9.2l-.7-.5-8.7,11.4-8.2-10.7a24,24,0,0,0,4.7,7.9c2.5,2.8,2.3,5,.1,7.8s-4.1,5.7-6.1,8.6l.7.5,8.8-11.9Zm20.4.3.2-1h-13.8V960.9h10.3v-1c-2.7,0-5.5.1-8.1-.1a3.3,3.3,0,0,1-2.4-2c-.2-3.3-.1-6.6-.1-10.4h13.9v-.6h-14.2v27.9Z" transform="translate(-870 -931)"/>
    <path d="M880.4,944.5c1.1-1.1,2-2.6,3.3-3.4a4.1,4.1,0,0,1,3.4-.1c3.6,2.4,9.2.1,10-3.9a3.6,3.6,0,0,1,2.5-2.3c1.6.1,4.6.9,4.7,1.4.1,3.3,2.1,4.1,4.6,5.7s4.9-.7,7.9-2c1,1.3,2.7,2.6,3.1,4.2s-1.1,2.9-1.7,4.4,2.6,7.8,4.6,8.2l2.4.5c1.1,6.9.9,7.2-4.6,7.6l-1.5,3.6c-3.7-1.6-4.6-4.4-4.1-7.9.9-6.8-5.5-15.3-15.1-15s-14.7,7.6-14.1,16.1a14,14,0,0,0,13.8,13c3.5,0,6.5.4,7.7,3-1.4,2.6-2.1,5-3.6,6.5s-3.3,1.4-5,1.4a4.1,4.1,0,0,1-2.4-2.4c-.8-4-6.3-6.5-9.5-4.1s-3.6,0-5-1.3-2.1-2.5-.5-4.4.2-8.8-3.7-9.4a2.8,2.8,0,0,1-2.7-3.6c.2-1.5.9-3.7,2-4.2C882.8,953.8,884.1,950.1,880.4,944.5Z" transform="translate(-870 -931)"/>
    <path d="M890.9,958.4c3.4,1.2,5.3,6.8,9.7,2.6s-1.4-6.7-2.5-10c5.9-1.3,11.8,1.9,11.9,7.4s3.7,9.2,7.2,12.9c1.3,1.5,2.4,3.3,3.6,4.9l-1.3,1.1-11.6-10.4-1.2,1.1L917,979.5l-.3.9c-.9-.2-2-.1-2.7-.6a37.2,37.2,0,0,1-4.7-4.2c-3.1-3-6.1-5.5-10.9-5.7S890.5,964.5,890.9,958.4Z" transform="translate(-870 -931)"/>
    <path d="M948.2,958l9.4.4V963h-9.5v11.7h-5.9v-28h17.4v5.2H948.2Z" transform="translate(-870 -931)"/>
    <path d="M969.5,974.7H964v-28h5.5Z" transform="translate(-870 -931)"/>
    <path d="M1022.5,946.7h14.1v.7h-12.7v12.4l10,.5v.7h-10.1v12.6H1037v.9h-14.6Z" transform="translate(-870 -931)"/>
    <path d="M1002.5,946.7h14.1v.7h-12.7v12.4l10,.5v.7h-10.1v12.6H1017v.9h-14.6Z" transform="translate(-870 -931)"/>
    <text class="cls-2" transform="translate(104.5 44.1) scale(0.98 1)">X</text>
  </g>
</svg>
